<svg width="573" height="1235" viewBox="0 0 573 1225" fill="none" xmlns="http://www.w3.org/2000/svg">
<g opacity="0.6">
<path d="M5.7514e-05 80.5557C5.79365e-05 70.889 1.6112 61.2223 4.83343 51.5556C8.05566 41.889 12.889 33.0278 19.3334 24.9723C26.3149 17.4537 35.176 11.2778 45.9168 6.44446C56.6576 2.14816 69.278 8.51007e-06 83.778 9.14389e-06L488.973 2.68555e-05C503.473 2.74893e-05 516.093 2.14818 526.834 6.44448C537.575 11.2778 546.168 17.4538 552.612 24.9723C559.594 33.0279 564.695 41.889 567.918 51.5557C571.14 61.2224 572.751 70.889 572.751 80.5557L572.751 95.0557C572.751 105.259 571.14 115.195 567.918 124.861C564.695 134.528 559.594 143.121 552.612 150.639C546.168 158.158 537.575 164.065 526.834 168.361C516.093 173.195 503.473 175.611 488.973 175.611L341.556 175.611L341.556 103.917L478.501 103.917C490.853 103.917 499.714 102.574 505.084 99.8891C510.455 97.7409 513.14 94.2502 513.14 89.4168L513.14 86.1946C513.14 81.3613 510.455 77.602 505.084 74.9168C500.251 72.7687 491.39 71.6946 478.501 71.6946L94.2502 71.6946C71.1576 71.6946 59.6113 76.5279 59.6113 86.1946L59.6113 89.4168C59.6113 99.0835 71.1576 103.917 94.2502 103.917L232.806 103.917L232.806 175.611L83.7779 175.611C69.2779 175.611 56.6576 173.195 45.9168 168.361C35.176 164.065 26.3149 158.158 19.3334 150.639C12.889 143.121 8.05566 134.528 4.83343 124.861C1.6112 115.195 5.64341e-05 105.259 5.68801e-05 95.0557L5.7514e-05 80.5557Z" fill="#254A48"/>
<path d="M340.751 373.086C323.565 373.086 310.676 370.401 302.084 365.031C294.028 359.66 288.658 352.947 285.973 344.892C283.825 352.947 278.454 359.66 269.862 365.031C261.806 370.401 249.186 373.086 232 373.086L110.361 373.086C71.6946 373.086 44.5741 374.429 29 377.114C13.963 380.336 5.90745 382.484 4.83342 383.558L4.83342 311.864C11.2779 307.567 22.8241 304.614 39.4723 303.003C56.1205 301.929 79.7502 301.392 110.361 301.392L225.556 301.392C248.112 301.392 259.389 296.827 259.389 287.697L259.389 269.169L4.83342 269.169L4.83343 197.475L567.918 197.475L567.918 293.336C567.918 315.892 560.668 334.688 546.168 349.725C531.668 365.299 511.26 373.086 484.945 373.086L340.751 373.086ZM312.556 287.697C312.556 296.827 323.297 301.392 344.778 301.392L473.667 301.392C496.76 301.392 508.306 296.29 508.306 286.086L508.306 269.169L312.556 269.169L312.556 287.697Z" fill="#254A48"/>
<path d="M567.918 472.132L4.83341 472.132L4.83342 400.437L567.918 400.437L567.918 472.132Z" fill="#254A48"/>
<path d="M3.59191e-05 574.589C3.63416e-05 564.922 1.61118 555.255 4.83341 545.589C8.05564 535.922 12.889 527.061 19.3334 519.005C26.3149 511.487 35.176 505.311 45.9168 500.477C56.6576 496.181 69.2779 494.033 83.7779 494.033L488.973 494.033C503.473 494.033 516.093 496.181 526.834 500.477C537.575 505.311 546.168 511.487 552.612 519.005C559.594 527.061 564.695 535.922 567.918 545.589C571.14 555.255 572.751 564.922 572.751 574.589L572.751 589.089C572.751 599.292 571.14 609.228 567.918 618.894C564.695 628.561 559.593 637.153 552.612 644.672C546.168 652.191 537.575 658.098 526.834 662.394C516.093 667.228 503.473 669.644 488.973 669.644L341.556 669.644L341.556 597.95L478.501 597.95C490.853 597.95 499.714 596.607 505.084 593.922C510.455 591.774 513.14 588.283 513.14 583.45L513.14 580.228C513.14 575.394 510.455 571.635 505.084 568.95C500.251 566.802 491.39 565.727 478.501 565.727L94.2502 565.727C71.1576 565.727 59.6112 570.561 59.6112 580.227L59.6112 583.45C59.6112 593.116 71.1576 597.95 94.2502 597.95L232.806 597.95L232.806 669.644L83.7779 669.644C69.2779 669.644 56.6576 667.228 45.9168 662.394C35.176 658.098 26.3149 652.19 19.3333 644.672C12.8889 637.153 8.05564 628.561 4.83341 618.894C1.61118 609.227 3.48393e-05 599.292 3.52853e-05 589.089L3.59191e-05 574.589Z" fill="#254A48"/>
<path d="M295.639 813.952L4.8334 874.369L4.8334 809.119L200.584 764.008L200.584 763.202L4.8334 763.202L4.8334 691.508L567.918 691.508L567.918 763.202L362.501 763.202L362.501 764.008L567.918 810.73L567.918 875.98L295.639 813.952Z" fill="#254A48"/>
<path d="M508.306 960.658L312.556 960.658L312.556 1014.63L259.389 1014.63L259.389 960.658L64.4446 960.658L64.4446 1034.77L4.83339 1034.77L4.8334 888.963L567.918 888.963L567.918 1029.13L508.306 1029.13L508.306 960.658Z" fill="#254A48"/>
<path d="M508.306 1225L508.306 1169.42L4.83338 1169.42L4.83339 1097.72L508.306 1097.72L508.306 1042.14L567.918 1042.14L567.918 1225L508.306 1225Z" fill="#254A48"/>
</g>
</svg>
