<svg width="336" height="158" viewBox="0 0 336 158" fill="none" xmlns="http://www.w3.org/2000/svg">
<path d="M22.8853 157.32C20.2453 157.32 17.6053 156.88 14.9653 156C12.3253 155.12 9.90525 153.8 7.70525 152.04C5.65192 150.133 3.96525 147.713 2.64525 144.78C1.47192 141.847 0.885254 138.4 0.885254 134.44V23.78C0.885254 19.82 1.47192 16.3733 2.64525 13.44C3.96525 10.5067 5.65192 8.16 7.70525 6.4C9.90525 4.49333 12.3253 3.1 14.9653 2.21999C17.6053 1.33999 20.2453 0.899994 22.8853 0.899994H26.8453C29.6319 0.899994 32.3453 1.33999 34.9853 2.21999C37.6253 3.1 39.9719 4.49333 42.0253 6.4C44.0786 8.16 45.6919 10.5067 46.8653 13.44C48.1853 16.3733 48.8453 19.82 48.8453 23.78V64.04H29.2653V26.64C29.2653 23.2667 28.8986 20.8467 28.1653 19.38C27.5786 17.9133 26.6253 17.18 25.3053 17.18H24.4253C23.1053 17.18 22.0786 17.9133 21.3453 19.38C20.7586 20.7 20.4653 23.12 20.4653 26.64V131.58C20.4653 137.887 21.7853 141.04 24.4253 141.04H25.3053C27.9453 141.04 29.2653 137.887 29.2653 131.58V93.74H48.8453V134.44C48.8453 138.4 48.1853 141.847 46.8653 144.78C45.6919 147.713 44.0786 150.133 42.0253 152.04C39.9719 153.8 37.6253 155.12 34.9853 156C32.3453 156.88 29.6319 157.32 26.8453 157.32H22.8853Z" fill="#254A48"/>
<path d="M102.776 64.26C102.776 68.9533 102.043 72.4733 100.576 74.82C99.1095 77.02 97.2762 78.4867 95.0762 79.22C97.2762 79.8067 99.1095 81.2733 100.576 83.62C102.043 85.82 102.776 89.2667 102.776 93.96V127.18C102.776 137.74 103.143 145.147 103.876 149.4C104.756 153.507 105.343 155.707 105.636 156H86.0562C84.8829 154.24 84.0762 151.087 83.6362 146.54C83.3429 141.993 83.1962 135.54 83.1962 127.18V95.72C83.1962 89.56 81.9495 86.48 79.4562 86.48H74.3962V156H54.8162V2.21999H80.9962C87.1562 2.21999 92.2895 4.19999 96.3962 8.15999C100.65 12.12 102.776 17.6933 102.776 24.88V64.26ZM79.4562 71.96C81.9495 71.96 83.1962 69.0267 83.1962 63.16V27.96C83.1962 21.6533 81.8029 18.5 79.0162 18.5H74.3962V71.96H79.4562Z" fill="#254A48"/>
<path d="M129.826 2.21999V156H110.246V2.21999H129.826Z" fill="#254A48"/>
<path d="M157.807 157.32C155.167 157.32 152.527 156.88 149.887 156C147.247 155.12 144.827 153.8 142.627 152.04C140.574 150.133 138.887 147.713 137.567 144.78C136.394 141.847 135.807 138.4 135.807 134.44V23.78C135.807 19.82 136.394 16.3733 137.567 13.44C138.887 10.5067 140.574 8.16 142.627 6.4C144.827 4.49333 147.247 3.1 149.887 2.21999C152.527 1.33999 155.167 0.899994 157.807 0.899994H161.767C164.554 0.899994 167.267 1.33999 169.907 2.21999C172.547 3.1 174.894 4.49333 176.947 6.4C179 8.16 180.614 10.5067 181.787 13.44C183.107 16.3733 183.767 19.82 183.767 23.78V64.04H164.187V26.64C164.187 23.2667 163.82 20.8467 163.087 19.38C162.5 17.9133 161.547 17.18 160.227 17.18H159.347C158.027 17.18 157 17.9133 156.267 19.38C155.68 20.7 155.387 23.12 155.387 26.64V131.58C155.387 137.887 156.707 141.04 159.347 141.04H160.227C162.867 141.04 164.187 137.887 164.187 131.58V93.74H183.767V134.44C183.767 138.4 183.107 141.847 181.787 144.78C180.614 147.713 179 150.133 176.947 152.04C174.894 153.8 172.547 155.12 169.907 156C167.267 156.88 164.554 157.32 161.767 157.32H157.807Z" fill="#254A48"/>
<path d="M223.178 76.58L239.678 156H221.858L209.538 102.54H209.318V156H189.738V2.21999H209.318V58.32H209.538L222.298 2.21999H240.118L223.178 76.58Z" fill="#254A48"/>
<path d="M263.244 18.5V71.96H277.984V86.48H263.244V139.72H283.484V156H243.664V2.21999H281.944V18.5H263.244Z" fill="#254A48"/>
<path d="M335.436 18.5H320.257V156H300.677V18.5H285.496V2.21999H335.436V18.5Z" fill="#254A48"/>
</svg>
