<svg xmlns="http://www.w3.org/2000/svg" width="520" height="254" viewBox="0 0 520 254" fill="none">
  <path d="M33.4843 253.27C29.4472 253.27 25.4101 252.557 21.3729 251.132C17.3358 249.707 13.6549 247.57 10.3303 244.72C7.24306 241.871 4.74954 238.19 2.84973 233.678C0.949909 229.166 0 223.704 0 217.292V35.9778C0 29.5659 0.949909 24.1039 2.84973 19.5919C4.74954 15.0798 7.24306 11.3989 10.3303 8.54918C13.6549 5.69946 17.3358 3.56216 21.3729 2.13729C25.4101 0.71243 29.4472 0 33.4843 0H39.8962C43.9333 0 47.9704 0.71243 52.0075 2.13729C56.0446 3.56216 59.6068 5.69946 62.694 8.54918C66.0187 11.3989 68.6309 15.0798 70.5307 19.5919C72.4306 24.1039 73.3805 29.5659 73.3805 35.9778V102.59H45.5956V39.8962C45.5956 33.7218 44.8832 29.4472 43.4583 27.0724C42.0335 24.6976 40.0149 23.5102 37.4027 23.5102H35.9778C33.3656 23.5102 31.347 24.8164 29.9221 27.4286C28.4973 29.8034 27.7848 34.078 27.7848 40.2524V213.017C27.7848 219.191 28.4973 223.585 29.9221 226.197C31.347 228.572 33.3656 229.759 35.9778 229.759H37.4027C40.0149 229.759 42.0335 228.572 43.4583 226.197C44.8832 223.585 45.5956 219.191 45.5956 213.017V150.323H73.3805V217.292C73.3805 223.704 72.4306 229.166 70.5307 233.678C68.6309 238.19 66.0187 241.871 62.694 244.72C59.6068 247.57 56.0446 249.707 52.0075 251.132C47.9704 252.557 43.9333 253.27 39.8962 253.27H33.4843Z" fill="#1C2C59"/>
  <path d="M158.277 102.59C158.277 110.189 157.089 115.889 154.715 119.689C152.34 123.251 149.371 125.625 145.809 126.813C149.371 127.763 152.34 130.138 154.715 133.937C157.089 137.499 158.277 143.08 158.277 150.679V206.605C158.277 214.679 158.395 221.448 158.633 226.91C159.108 232.371 159.583 236.884 160.058 240.446C160.533 243.77 161.008 246.264 161.483 247.926C161.958 249.589 162.314 250.657 162.551 251.132H134.41C132.748 248.282 131.561 243.414 130.848 236.527C130.373 229.403 130.136 219.429 130.136 206.605V153.173C130.136 142.486 127.761 137.143 123.011 137.143H112.325V251.132H84.54V2.13729H124.792C134.054 2.13729 141.891 5.2245 148.303 11.3989C154.952 17.5733 158.277 26.36 158.277 37.7589V102.59ZM123.011 116.483C127.761 116.483 130.136 111.258 130.136 100.809V42.0335C130.136 31.1095 127.405 25.6475 121.943 25.6475H112.325V116.483H123.011Z" fill="#1C2C59"/>
  <path d="M199.292 2.13729V251.132H171.507V2.13729H199.292Z" fill="#1C2C59"/>
  <path d="M243.944 253.27C239.907 253.27 235.87 252.557 231.833 251.132C227.795 249.707 224.114 247.57 220.79 244.72C217.703 241.871 215.209 238.19 213.309 233.678C211.409 229.166 210.46 223.704 210.46 217.292V35.9778C210.46 29.5659 211.409 24.1039 213.309 19.5919C215.209 15.0798 217.703 11.3989 220.79 8.54918C224.114 5.69946 227.795 3.56216 231.833 2.13729C235.87 0.71243 239.907 0 243.944 0H250.356C254.393 0 258.43 0.71243 262.467 2.13729C266.504 3.56216 270.066 5.69946 273.154 8.54918C276.478 11.3989 279.09 15.0798 280.99 19.5919C282.89 24.1039 283.84 29.5659 283.84 35.9778V102.59H256.055V39.8962C256.055 33.7218 255.343 29.4472 253.918 27.0724C252.493 24.6976 250.474 23.5102 247.862 23.5102H246.437C243.825 23.5102 241.807 24.8164 240.382 27.4286C238.957 29.8034 238.244 34.078 238.244 40.2524V213.017C238.244 219.191 238.957 223.585 240.382 226.197C241.807 228.572 243.825 229.759 246.437 229.759H247.862C250.474 229.759 252.493 228.572 253.918 226.197C255.343 223.585 256.055 219.191 256.055 213.017V150.323H283.84V217.292C283.84 223.704 282.89 229.166 280.99 233.678C279.09 238.19 276.478 241.871 273.154 244.72C270.066 247.57 266.504 249.707 262.467 251.132C258.43 252.557 254.393 253.27 250.356 253.27H243.944Z" fill="#1C2C59"/>
  <path d="M342.733 122.182L371.942 251.132H346.295L323.497 159.585H322.784V251.132H295V2.13729H322.784V96.1783H323.497L347.007 2.13729H372.655L342.733 122.182Z" fill="#1C2C59"/>
  <path d="M406.968 25.6475V116.126H431.191V137.143H406.968V227.622H440.096V251.132H379.183V2.13729H437.959V25.6475H406.968Z" fill="#1C2C59"/>
  <path d="M520 25.6475H496.134V251.132H468.349V25.6475H444.126V2.13729H520V25.6475Z" fill="#1C2C59"/>
</svg>