<svg width="293" height="314" viewBox="0 0 293 314" fill="none" xmlns="http://www.w3.org/2000/svg">
<path d="M274.134 53.7988C269.557 60.6596 265.183 67.6813 261.438 75.0208C269.992 67.0128 277.622 58.0582 284.98 48.9556C287.118 46.314 290.046 42.4737 292.124 39.7393C293.215 38.3125 292.942 36.2752 291.511 35.1847C290.282 34.2432 288.591 34.3189 287.444 35.2773C284.537 37.6972 281.631 40.1289 278.785 42.6416C271.645 48.9123 264.71 55.4141 258.242 62.3775C256.939 63.7844 255.66 65.2026 254.429 66.6788C256.117 65.7464 257.757 64.768 259.384 63.7546C264.43 60.6177 269.33 57.2837 274.134 53.7988ZM244.381 33.7674C241.043 38.2953 237.561 42.7083 233.829 46.9378C232.701 48.2127 231.548 49.4879 230.324 50.7057C230.929 49.0877 231.594 47.5156 232.283 45.9548C237.127 35.1229 243.064 24.8357 249.453 14.8577C251.524 11.7596 256.315 13.9314 255.311 17.5512C251.454 30.3027 247.067 43.0045 240.901 54.8681C241.57 47.7686 242.804 40.7416 244.369 33.7794L244.381 33.7674ZM216.394 48.9943C213.347 41.2069 210.976 33.1498 208.851 25.065C208.214 31.3308 207.388 37.5645 206.303 43.744C205.962 45.6627 205.597 47.57 205.151 49.4787C204.609 45.6153 204.303 41.7478 204.054 37.8559C203.466 28.2311 203.416 18.5386 203.674 8.91119L203.873 3.13401C203.928 1.65442 204.986 0.357307 206.509 0.0615145C208.279 -0.273686 209.981 0.870936 210.319 2.63721C210.981 6.01749 211.915 10.7427 212.471 14.1013C214.4 25.6396 216.049 37.2883 216.383 48.9945L216.394 48.9943ZM165.519 14.0541C176.117 27.0293 186.532 40.266 195.843 54.2019C187.136 46.229 178.889 37.7085 170.851 29.0552C175.11 36.8338 179.218 44.6972 183.068 52.647C184.278 55.1495 185.453 57.6761 186.582 60.227C183.127 55.8615 179.858 51.3637 176.646 46.8297C168.666 35.535 161.091 23.8698 153.83 12.1052L149.502 5.02008C148.678 3.6728 148.939 1.89631 150.178 0.854448C151.556 -0.307398 153.605 -0.131083 154.771 1.24571C157.968 5.01721 162.451 10.2923 165.531 14.0775L165.519 14.0541ZM120.501 37.9261C115.977 34.8929 106.974 28.7439 102.496 25.6399C101.162 24.7238 100.682 22.9364 101.455 21.468C102.284 19.8813 104.248 19.2612 105.839 20.0909C115.099 24.8859 125.262 30.217 134.361 35.2026C150.112 43.8304 165.748 52.6713 180.895 62.3304C166.715 56.6332 152.805 50.2977 139.01 43.7373C148.701 50.8956 158.266 58.2084 167.575 65.6786C170.416 67.9535 173.234 70.2765 176.017 72.6347C169.649 69.0813 163.406 65.3386 157.187 61.5362C144.842 53.9653 132.549 45.9946 120.513 37.9258L120.501 37.9261ZM61.8706 63.2848L46.4314 59.4163C44.8131 59.0097 43.7367 57.4083 44.0119 55.7372C44.2964 53.9724 45.9792 52.7702 47.7486 53.0568C65.5101 55.9468 85.8808 59.4271 103.53 62.6356C127.351 67.0193 151.305 71.6114 174.909 76.9955C152.045 74.7439 129.12 71.7652 106.331 68.5376C125.348 73.7891 144.286 79.2883 163.054 85.1301C165.585 85.9436 168.128 86.7222 170.648 87.5598C166.176 86.7554 159.485 85.4137 155 84.5162C123.794 78.181 92.7827 70.916 61.8706 63.2848ZM171.334 103.097C146.983 105.025 122.595 106.272 98.1934 107.356C80.6993 108.135 60.8861 108.776 43.3053 109.286L25.0059 109.75C23.3251 109.778 21.8554 108.524 21.6838 106.825C21.4975 105.045 22.8084 103.45 24.5927 103.267C73.0772 98.406 122.18 93.9456 170.828 91.5817C144.893 95.6365 118.724 99.1211 92.5138 102.265C106.646 102.19 120.757 102.208 134.693 102.347C146.901 102.515 159.12 102.648 171.334 103.086L171.334 103.097ZM174.44 118.524C146.836 128.334 119.02 137.49 91.142 146.484C71.154 152.938 48.4611 160.024 28.3048 166.246L7.30478 172.659C5.66798 173.156 3.90042 172.305 3.29404 170.685C2.66371 169.005 3.52296 167.137 5.21646 166.51C59.9662 146.251 115.507 126.191 171.041 108.29C143.261 120.051 115.097 131.373 86.8215 142.403C101.922 138.074 117.012 133.84 131.953 129.749C146.086 125.929 160.219 122.075 174.44 118.512L174.44 118.524ZM183.175 133.138C154.039 152.351 124.54 170.972 94.9555 189.465C73.7293 202.723 49.5913 217.532 28.127 230.629L5.7539 244.2C4.28857 245.081 2.35303 244.692 1.37414 243.253C0.359018 241.768 0.745085 239.744 2.22004 238.733C59.5981 199.665 118.241 160.282 176.951 123.316C146.767 145.633 115.942 167.668 84.9365 189.4C102.454 179.104 120.033 168.877 137.568 158.839C152.73 150.202 167.868 141.542 183.175 133.138ZM32.4158 307.67C83.9167 250.195 136.651 192.019 189.971 136.309C165.156 166.045 139.705 195.699 114.027 225.145C127.293 211.904 140.584 198.723 153.67 185.897C167.311 172.557 180.951 159.205 194.796 146.061C169.118 174.298 142.95 202.075 116.663 229.736C91.5854 256.085 62.6705 286.009 37.2011 312.119C34.0806 315.058 29.747 310.884 32.4393 307.681L32.4158 307.67Z" fill="url(#paint0_radial_264_3903)"/>
<defs>
<radialGradient id="paint0_radial_264_3903" cx="0" cy="0" r="1" gradientUnits="userSpaceOnUse" gradientTransform="translate(222.788 109.468) rotate(134.479) scale(156.045 156.41)">
<stop offset="0.3" stop-color="#DDA835"/>
<stop offset="0.47" stop-color="#DDA835"/>
<stop offset="0.595" stop-color="#A42532"/>
<stop offset="0.855" stop-color="#A42532"/>
<stop offset="1" stop-color="#A42532"/>
</radialGradient>
</defs>
</svg>
