<svg width="354" height="368" viewBox="0 0 354 368" fill="none" xmlns="http://www.w3.org/2000/svg">
<path opacity="0.26" d="M40.7615 287.818C34.6535 291.351 28.7091 295.144 22.8848 299.095C28.5942 291.134 34.0162 282.948 38.7748 274.39C28.3242 283.579 18.9344 293.898 9.86747 304.41L5.4157 309.707L1.0404 315.062C-0.309163 316.721 -0.0555329 319.14 1.6038 320.482C3.0238 321.639 5.0322 321.611 6.41364 320.535C9.96194 317.777 13.4833 314.992 16.9588 312.115C25.649 304.949 34.1398 297.513 42.0712 289.49C43.4433 288.067 45.4718 286.009 46.7673 284.529C45.0338 285.395 42.5088 286.823 40.7777 287.814L40.7615 287.818ZM50.5891 346.13C48.0435 349.774 42.3861 347.012 43.7458 342.747C48.8415 327.747 54.5003 312.894 62.2799 299.034C61.2298 307.48 59.4373 315.753 57.2984 323.96C60.2083 320.273 63.1892 316.66 66.2657 313.172C68.9454 310.149 71.6782 307.178 74.6508 304.347C73.0726 308.125 71.2666 311.739 69.4183 315.331C63.8665 325.913 57.3565 336.267 50.5891 346.13ZM104.089 361.703C103.705 366.237 97.2386 366.553 96.4393 362.06C93.4944 343.845 91.0729 325.37 91.0821 306.893C94.3633 316.258 96.8982 325.871 99.0802 335.557C100.071 328.142 101.285 320.775 102.83 313.505C103.266 311.535 103.886 308.658 104.413 306.749C104.656 308.725 104.821 311.665 104.951 313.678C105.847 329.66 105.244 345.767 104.082 361.745L104.089 361.703ZM162.195 365.783L156.03 358.005C141.825 339.767 127.843 321.091 115.623 301.46C125.619 311.278 135.052 321.637 144.232 332.212C139.483 322.831 134.937 313.351 130.686 303.781C129.53 301.158 127.851 297.289 126.823 294.686C128.529 296.941 130.909 300.417 132.545 302.757C145.524 321.65 157.335 341.504 168.562 361.506C170.81 365.665 165.181 369.427 162.186 365.797L162.195 365.783ZM159.437 297.246C152.839 291.687 146.234 286.169 139.843 280.353C147.274 284.782 154.471 289.503 161.701 294.207C179.561 305.954 197.369 318.514 214.654 331.106L225.046 338.774C226.587 339.905 227.076 342.032 226.118 343.753C225.082 345.617 222.734 346.278 220.863 345.226C213.45 341.094 206.045 336.92 198.689 332.681C176.621 319.885 154.739 306.765 133.651 292.387C150.216 299.698 166.448 307.687 182.529 315.985C174.713 309.813 166.979 303.567 159.425 297.269L159.437 297.246ZM222.236 287.741C208.899 283.598 195.63 279.379 182.492 275.066C170.567 271.091 158.623 267.128 146.781 262.843C159.093 265.503 171.305 268.478 183.534 271.448C213.829 278.944 244.563 287.177 274.637 295.621L292.773 300.783C294.67 301.322 295.897 303.251 295.503 305.243C295.088 307.325 293.062 308.688 290.973 308.278L272.194 304.576C228.454 295.754 184.503 286.403 141.334 275.228C168.297 278.801 195.317 283.087 222.24 287.759L222.236 287.741ZM240.224 248.275C223.38 247.838 206.582 247.31 189.95 246.626C175.492 245.99 161.038 245.373 146.582 244.403C161.052 243.658 175.514 243.264 189.975 242.843C225.867 241.947 262.491 241.654 298.437 241.762L320.124 241.883C322.125 241.897 323.81 243.449 323.946 245.473C324.096 247.597 322.482 249.443 320.364 249.571C262.955 253.534 204.227 257.022 146.712 258.062C177.503 254.18 208.955 251.056 240.202 248.269L240.224 248.275ZM147.133 238.252C180.471 225.348 214.412 212.904 248.485 200.825C230.175 205.459 211.785 210.018 194.264 214.249C177.368 218.258 160.481 222.305 143.506 226C167.386 218.274 194.07 210.339 218.246 203.185C250.393 193.741 286.03 183.699 318.443 174.784L343.571 167.945C345.533 167.419 347.592 168.501 348.237 170.442C348.906 172.464 347.824 174.646 345.799 175.317C333.507 179.455 308.687 187.71 296.371 191.767C247.249 207.824 196.765 223.975 147.113 238.237L147.133 238.252ZM352.194 89.8347C282.833 133.931 211.558 178.644 140.713 220.225C177.372 194.851 214.914 169.772 252.644 145.055C231.152 156.806 209.411 168.563 188.764 179.574C170.479 189.258 152.197 198.962 133.734 208.365C159.172 192.65 187.742 175.756 213.628 160.508C248.071 140.287 286.332 118.314 321.185 98.5017L348.208 83.2485C352.689 80.9209 356.248 87.1034 352.183 89.8561L352.194 89.8347ZM319.167 6.99878C303.42 23.4465 262.779 65.879 247.369 81.6714C207.669 122.571 166.529 164.481 125.821 204.351C156.092 170.314 187.708 135.778 219.615 101.493C203.246 116.831 186.399 132.473 170.769 146.91C154.088 162.215 137.411 177.538 120.503 192.634C136.24 176.33 152.215 160.272 168.165 144.211C199.151 113.162 233.433 79.4182 264.87 48.8025L313.699 1.57697C315.188 0.143112 317.552 0.11725 319.046 1.56769C320.582 3.04116 320.631 5.48436 319.155 7.02014L319.167 6.99878Z" fill="url(#paint0_radial_264_3902)"/>
<defs>
<radialGradient id="paint0_radial_264_3902" cx="0" cy="0" r="1" gradientUnits="userSpaceOnUse" gradientTransform="translate(175.863 194.885) rotate(-9.61837) scale(181.51 181.299)">
<stop offset="0.3" stop-color="#FDEE00"/>
<stop offset="0.36" stop-color="#F2EB06"/>
<stop offset="0.47" stop-color="#D5E416"/>
<stop offset="0.61" stop-color="#A6D831"/>
<stop offset="0.77" stop-color="#66C956"/>
<stop offset="0.96" stop-color="#14B585"/>
<stop offset="1" stop-color="#00B091"/>
</radialGradient>
</defs>
</svg>
