<svg width="266" height="76" viewBox="0 0 266 76" fill="none" xmlns="http://www.w3.org/2000/svg">
<g clip-path="url(#clip0_264_2720)">
<path d="M90.1945 60.798H66.0449V59.5486H69.7592V31.6874H66.0449V30.4224H79.8996V31.6874H76.205V59.533H80.7279C82.0043 59.568 83.2757 59.3676 84.4718 58.9427C85.3926 58.5938 86.2096 58.0362 86.8516 57.3185C87.4892 56.5701 87.9621 55.7076 88.242 54.7822C88.5725 53.7005 88.7732 52.5866 88.8402 51.462L88.8698 51.006H90.1846L90.1945 60.798Z" fill="url(#paint0_linear_264_2720)"/>
<path d="M108.438 61.1917C106.369 61.2236 104.32 60.8115 102.442 59.986C100.704 59.2001 99.1721 58.0575 97.9553 56.6408C96.7026 55.1688 95.7546 53.4848 95.1614 51.6776C94.5128 49.7142 94.1912 47.6665 94.2082 45.6087C94.1922 43.5451 94.532 41.4929 95.214 39.5336C95.8454 37.7245 96.8251 36.0426 98.1032 34.5736C99.335 33.168 100.869 32.0294 102.603 31.2346C104.431 30.4401 106.418 30.0288 108.428 30.0288C110.438 30.0288 112.424 30.4401 114.252 31.2346C115.986 32.0294 117.52 33.168 118.752 34.5736C120.03 36.0411 121.007 37.7236 121.632 39.5336C122.303 41.4947 122.636 43.5464 122.618 45.6087C122.635 47.6658 122.316 49.713 121.674 51.6776C121.086 53.4852 120.146 55.1719 118.903 56.6502C117.691 58.0733 116.156 59.2179 114.413 59.9985C112.539 60.8122 110.498 61.2197 108.438 61.1917ZM108.438 31.2752C107.23 31.2376 106.051 31.6284 105.131 32.3715C104.159 33.226 103.421 34.2927 102.981 35.4794C102.405 36.9747 102.017 38.5295 101.824 40.1114C101.588 41.9352 101.472 43.7712 101.476 45.6087C101.473 47.4457 101.57 49.2816 101.765 51.1091C101.918 52.6901 102.272 54.2476 102.82 55.7475C103.236 56.9375 103.967 58.0057 104.943 58.8491C105.824 59.5768 107.008 59.9454 108.454 59.9454C109.9 59.9454 111.084 59.5768 111.955 58.8491C112.925 58.0043 113.649 56.936 114.058 55.7475C114.6 54.2464 114.951 52.6893 115.104 51.1091C115.298 49.2815 115.393 47.4456 115.39 45.6087C115.396 43.7717 115.287 41.9359 115.061 40.1114C114.875 38.5293 114.49 36.9741 113.914 35.4794C113.477 34.289 112.743 33.2172 111.774 32.3559C110.845 31.6093 109.653 31.2234 108.438 31.2752Z" fill="url(#paint1_linear_264_2720)"/>
<path d="M139.546 60.7982H125.691V59.5489H129.406V31.6876H125.691V30.4226H139.615C142.245 30.4226 144.434 30.7756 146.13 31.4721C147.727 32.0761 149.079 33.1512 149.986 34.5393C150.836 35.957 151.265 37.568 151.225 39.1995C151.273 40.8096 150.842 42.3999 149.982 43.7879C149.055 45.1328 147.696 46.1571 146.107 46.7083C144.411 47.3549 142.225 47.6828 139.615 47.6828H135.855V59.5332H139.546V60.7982ZM135.855 46.4303H139.119C139.884 46.4389 140.633 46.2205 141.262 45.8056C141.918 45.3637 142.462 44.7873 142.853 44.119C143.296 43.3749 143.627 42.576 143.839 41.7451C144.055 40.911 144.165 40.0554 144.168 39.1964C144.165 38.3199 144.054 37.4468 143.839 36.5946C143.629 35.7304 143.298 34.8972 142.853 34.1177C142.462 33.4194 141.916 32.8106 141.252 32.3342C140.638 31.9008 139.89 31.6724 139.125 31.6845H135.861L135.855 46.4303Z" fill="url(#paint2_linear_264_2720)"/>
<path d="M177.564 60.7982H153.27V59.5489H156.984V31.6876H153.27V30.4226H177.15V39.4432H175.861L175.822 38.9996C175.717 37.7182 175.357 36.4674 174.76 35.3139C174.211 34.247 173.374 33.3374 172.334 32.6777C171.197 31.9988 169.873 31.6583 168.531 31.7001H163.433V44.4907H164.748C165.446 44.4904 166.133 44.324 166.746 44.0065C167.389 43.6771 167.944 43.2111 168.367 42.6447C168.817 42.0302 169.101 41.3202 169.195 40.577L169.254 40.1584H170.523V50.266H169.228L169.169 49.8443C169.069 49.084 168.783 48.3566 168.334 47.7203C167.91 47.1242 167.348 46.6284 166.69 46.271C166.092 45.9374 165.412 45.7597 164.718 45.7557H163.403V59.5457H168.091C169.869 59.5457 171.345 59.2022 172.479 58.5213C173.621 57.8432 174.534 56.8674 175.108 55.7101C175.753 54.3767 176.127 52.9399 176.213 51.4747L176.246 51.025H177.544L177.564 60.7982Z" fill="url(#paint3_linear_264_2720)"/>
<path d="M196.569 60.7982H182.007V59.5489H185.722V31.6876H182.007V30.4226H195.721C199.116 30.4226 201.864 31.0223 203.882 32.2092C205.979 33.4586 207.044 35.4451 207.044 38.1594C207.044 40.8206 206.035 42.7853 204.043 44.0003C203.197 44.4992 202.279 44.879 201.318 45.1279C201.667 45.1997 202.009 45.2809 202.337 45.3684C203.976 45.7625 205.464 46.5887 206.63 47.7516C207.725 48.8854 208.274 50.419 208.274 52.3149C208.274 55.3509 207.199 57.5592 205.072 58.8742C203.024 60.1517 200.161 60.7982 196.569 60.7982ZM192.171 59.5489H195.638C196.648 59.553 197.629 59.2327 198.423 58.6399C199.326 57.9501 200.028 57.0509 200.461 56.0287C200.997 54.7816 201.26 53.4434 201.233 52.0963C201.233 50.6251 200.98 49.4195 200.477 48.5074C200.044 47.6697 199.357 46.9745 198.505 46.5115C197.628 46.0684 196.648 45.8428 195.655 45.8556H192.171V59.5489ZM192.171 44.5906H195.228C196.121 44.595 197.002 44.3889 197.791 43.9909C198.606 43.561 199.266 42.908 199.685 42.1168C200.178 41.236 200.431 40.0491 200.431 38.5811C200.466 37.2945 200.208 36.0159 199.675 34.8329C199.253 33.9133 198.586 33.1144 197.739 32.5153C197.01 32.0084 196.131 31.7339 195.228 31.7313H192.171V44.5906Z" fill="url(#paint4_linear_264_2720)"/>
<path d="M235.707 60.7982H211.416V59.5489H215.127V31.6876H211.416V30.4226H235.296V39.4432H234.004L233.965 38.9996C233.862 37.7179 233.501 36.4669 232.903 35.3139C232.355 34.2463 231.518 33.3365 230.477 32.6777C229.342 31.9983 228.018 31.6578 226.678 31.7001H221.576V44.4907H222.891C223.589 44.49 224.276 44.3236 224.889 44.0065C225.533 43.6771 226.087 43.2111 226.51 42.6447C226.959 42.03 227.242 41.32 227.335 40.577L227.394 40.1584H228.663V50.266H227.394L227.335 49.8443C227.237 49.0837 226.951 48.3559 226.5 47.7203C226.082 47.1258 225.527 46.6301 224.876 46.271C224.278 45.9374 223.598 45.7597 222.904 45.7557H221.589V59.5457H226.277C228.055 59.5457 229.531 59.2022 230.668 58.5213C231.81 57.8434 232.723 56.8675 233.298 55.7101C233.942 54.3765 234.318 52.9399 234.405 51.4747L234.438 51.025H235.733L235.707 60.7982Z" fill="url(#paint5_linear_264_2720)"/>
<path d="M261.079 60.7982H245.575V59.5489H250.114V31.6876H248.076C247.148 31.659 246.229 31.8695 245.417 32.2967C244.668 32.7231 244.041 33.3172 243.589 34.0271C243.059 34.8618 242.67 35.7703 242.435 36.7195C242.22 37.5552 242.063 38.4035 241.965 39.2589L241.946 39.4307H240.657V30.4226H265.997V39.4432H264.708V39.2682C264.616 38.4144 264.46 37.5679 264.241 36.7351C263.999 35.7854 263.606 34.8764 263.075 34.0396C262.623 33.3297 261.996 32.7356 261.247 32.3092C260.428 31.8809 259.502 31.6705 258.568 31.7001H256.56V59.5457H261.096L261.079 60.7982Z" fill="url(#paint6_linear_264_2720)"/>
<path d="M48.687 39.0307C42.56 40.758 40.0389 41.492 35.6968 47.4641C30.5296 54.5512 31.4237 63.4499 31.9332 66.9951C33.0146 65.8737 33.7739 65.0054 34.9408 62.5722C36.5843 59.1583 36.8111 58.4274 36.959 57.5997C37.4455 54.8698 36.3016 54.8729 36.7979 52.1555C37.0872 50.625 37.3271 49.3881 38.4414 48.5948C39.8614 47.5952 40.6338 48.6385 42.7145 48.4886C45.4164 48.2918 48.6607 46.4958 49.5843 43.4692C50.0347 41.9886 50.416 38.5403 48.687 39.0307Z" fill="url(#paint7_linear_264_2720)"/>
<path d="M5.83115 39.0307C11.9548 40.758 14.4792 41.492 18.8213 47.4641C23.9885 54.5512 23.0944 63.4499 22.5817 66.9951C21.5035 65.8737 20.7442 65.0054 19.5741 62.5722C17.9306 59.1583 17.7071 58.4274 17.5591 57.5997C17.0727 54.8698 18.2165 54.8729 17.7169 52.1555C17.4309 50.625 17.191 49.3881 16.0734 48.5948C14.6501 47.5952 13.881 48.6385 11.8003 48.4886C9.09513 48.2918 5.85087 46.4958 4.92723 43.4692C4.48019 41.9886 4.10219 38.5403 5.83115 39.0307Z" fill="url(#paint8_linear_264_2720)"/>
<path d="M42.7173 11.6443C42.4144 13.5316 42.4022 15.4508 42.6811 17.3414C42.6811 17.4164 42.7074 17.5007 42.7173 17.5788C43.2563 21.0146 44.7223 24.2037 46.941 26.5213V34.483C46.54 34.2581 42.2998 31.75 37.9117 35.5168C34.2171 38.684 36.8631 42.4041 36.7678 43.2411C34.3685 45.3947 32.4715 48.0028 31.1996 50.8967C27.4492 59.3988 30.0952 67.6791 30.7625 69.5969C31.1775 70.4637 31.2339 71.4473 30.9202 72.3518C30.4173 73.6199 28.6193 74.6413 27.2585 75.9906C25.7794 74.5382 24.103 73.6199 23.6001 72.3518C23.2822 71.4478 23.3386 70.4627 23.7579 69.5969C24.4153 67.6791 27.0679 59.3988 23.3207 50.8967C22.0453 47.9999 20.1413 45.3912 17.7328 43.2411C17.6375 42.4041 20.2802 38.684 16.5922 35.5168C12.2008 31.75 7.96057 34.2675 7.55956 34.483C7.55956 31.8249 7.55956 29.1731 7.55956 26.5213C9.78485 24.2131 11.2574 21.0146 11.7801 17.5788C11.7801 17.5007 11.8096 17.4164 11.8195 17.3414C12.0989 15.4507 12.0856 13.5313 11.7801 11.6443C10.7184 5.24429 6.12972 1.09321 0.844229 0.712148C0.545115 0.489456 0.258743 0.251734 -0.0136719 0H1.02503C6.89231 0 12.4243 3.66694 14.6299 10.3574C16.1649 14.9988 15.8033 19.4623 15.1492 22.6076C14.8511 24.0919 14.411 25.5472 13.8344 26.9554C16.0185 27.564 18.0556 28.5743 19.8299 29.929C20.2934 30.2819 20.6911 30.6224 21.0264 30.9254C24.4021 33.9645 26.943 37.6689 27.2717 40.5362C27.6004 37.672 30.0985 33.977 33.4709 30.9254C33.8226 30.613 34.2467 30.2507 34.7397 29.8759C36.4953 28.5491 38.5044 27.5574 40.6563 26.9554C40.0761 25.5484 39.6359 24.0927 39.3415 22.6076C38.6841 19.4623 38.316 14.9988 39.8543 10.3574C42.0631 3.66694 47.5919 0 53.4591 0H54.511C54.2389 0.253302 53.9514 0.491099 53.6498 0.712148C48.3676 1.10258 43.7757 5.25366 42.7173 11.6443Z" fill="url(#paint9_linear_264_2720)"/>
</g>
<defs>
<linearGradient id="paint0_linear_264_2720" x1="82.2958" y1="9.33277" x2="76.2013" y2="67.9618" gradientUnits="userSpaceOnUse">
<stop stop-color="#FCC054"/>
<stop offset="0.04" stop-color="#F2B44C"/>
<stop offset="0.13" stop-color="#DE9B3C"/>
<stop offset="0.18" stop-color="#D79236"/>
<stop offset="0.26" stop-color="#DE9A3C"/>
<stop offset="0.38" stop-color="#F0B14B"/>
<stop offset="0.45" stop-color="#FCC054"/>
<stop offset="0.56" stop-color="#FCC85D"/>
<stop offset="0.75" stop-color="#FDDD76"/>
<stop offset="0.89" stop-color="#FDF08B"/>
</linearGradient>
<linearGradient id="paint1_linear_264_2720" x1="112.241" y1="12.4438" x2="106.146" y2="71.076" gradientUnits="userSpaceOnUse">
<stop stop-color="#FCC054"/>
<stop offset="0.04" stop-color="#F2B44C"/>
<stop offset="0.13" stop-color="#DE9B3C"/>
<stop offset="0.18" stop-color="#D79236"/>
<stop offset="0.26" stop-color="#DE9A3C"/>
<stop offset="0.38" stop-color="#F0B14B"/>
<stop offset="0.45" stop-color="#FCC054"/>
<stop offset="0.56" stop-color="#FCC85D"/>
<stop offset="0.75" stop-color="#FDDD76"/>
<stop offset="0.89" stop-color="#FDF08B"/>
</linearGradient>
<linearGradient id="paint2_linear_264_2720" x1="140.726" y1="15.405" x2="134.635" y2="74.0371" gradientUnits="userSpaceOnUse">
<stop stop-color="#FCC054"/>
<stop offset="0.04" stop-color="#F2B44C"/>
<stop offset="0.13" stop-color="#DE9B3C"/>
<stop offset="0.18" stop-color="#D79236"/>
<stop offset="0.26" stop-color="#DE9A3C"/>
<stop offset="0.38" stop-color="#F0B14B"/>
<stop offset="0.45" stop-color="#FCC054"/>
<stop offset="0.56" stop-color="#FCC85D"/>
<stop offset="0.75" stop-color="#FDDD76"/>
<stop offset="0.89" stop-color="#FDF08B"/>
</linearGradient>
<linearGradient id="paint3_linear_264_2720" x1="168.561" y1="18.2973" x2="162.466" y2="76.9295" gradientUnits="userSpaceOnUse">
<stop stop-color="#FCC054"/>
<stop offset="0.04" stop-color="#F2B44C"/>
<stop offset="0.13" stop-color="#DE9B3C"/>
<stop offset="0.18" stop-color="#D79236"/>
<stop offset="0.26" stop-color="#DE9A3C"/>
<stop offset="0.38" stop-color="#F0B14B"/>
<stop offset="0.45" stop-color="#FCC054"/>
<stop offset="0.56" stop-color="#FCC85D"/>
<stop offset="0.75" stop-color="#FDDD76"/>
<stop offset="0.89" stop-color="#FDF08B"/>
</linearGradient>
<linearGradient id="paint4_linear_264_2720" x1="197.492" y1="21.3052" x2="191.398" y2="79.9342" gradientUnits="userSpaceOnUse">
<stop stop-color="#FCC054"/>
<stop offset="0.04" stop-color="#F2B44C"/>
<stop offset="0.13" stop-color="#DE9B3C"/>
<stop offset="0.18" stop-color="#D79236"/>
<stop offset="0.26" stop-color="#DE9A3C"/>
<stop offset="0.38" stop-color="#F0B14B"/>
<stop offset="0.45" stop-color="#FCC054"/>
<stop offset="0.56" stop-color="#FCC85D"/>
<stop offset="0.75" stop-color="#FDDD76"/>
<stop offset="0.89" stop-color="#FDF08B"/>
</linearGradient>
<linearGradient id="paint5_linear_264_2720" x1="226.017" y1="24.2694" x2="219.925" y2="82.9014" gradientUnits="userSpaceOnUse">
<stop stop-color="#FCC054"/>
<stop offset="0.04" stop-color="#F2B44C"/>
<stop offset="0.13" stop-color="#DE9B3C"/>
<stop offset="0.18" stop-color="#D79236"/>
<stop offset="0.26" stop-color="#DE9A3C"/>
<stop offset="0.38" stop-color="#F0B14B"/>
<stop offset="0.45" stop-color="#FCC054"/>
<stop offset="0.56" stop-color="#FCC85D"/>
<stop offset="0.75" stop-color="#FDDD76"/>
<stop offset="0.89" stop-color="#FDF08B"/>
</linearGradient>
<linearGradient id="paint6_linear_264_2720" x1="254.216" y1="27.2023" x2="248.125" y2="85.8313" gradientUnits="userSpaceOnUse">
<stop stop-color="#FCC054"/>
<stop offset="0.04" stop-color="#F2B44C"/>
<stop offset="0.13" stop-color="#DE9B3C"/>
<stop offset="0.18" stop-color="#D79236"/>
<stop offset="0.26" stop-color="#DE9A3C"/>
<stop offset="0.38" stop-color="#F0B14B"/>
<stop offset="0.45" stop-color="#FCC054"/>
<stop offset="0.56" stop-color="#FCC85D"/>
<stop offset="0.75" stop-color="#FDDD76"/>
<stop offset="0.89" stop-color="#FDF08B"/>
</linearGradient>
<linearGradient id="paint7_linear_264_2720" x1="45.1436" y1="12.447" x2="39.8455" y2="63.4178" gradientUnits="userSpaceOnUse">
<stop stop-color="#FCC054"/>
<stop offset="0.04" stop-color="#F2B44C"/>
<stop offset="0.13" stop-color="#DE9B3C"/>
<stop offset="0.18" stop-color="#D79236"/>
<stop offset="0.26" stop-color="#DE9A3C"/>
<stop offset="0.38" stop-color="#F0B14B"/>
<stop offset="0.45" stop-color="#FCC054"/>
<stop offset="0.56" stop-color="#FCC85D"/>
<stop offset="0.75" stop-color="#FDDD76"/>
<stop offset="0.89" stop-color="#FDF08B"/>
</linearGradient>
<linearGradient id="paint8_linear_264_2720" x1="18.6471" y1="9.69519" x2="13.349" y2="60.6661" gradientUnits="userSpaceOnUse">
<stop stop-color="#FCC054"/>
<stop offset="0.04" stop-color="#F2B44C"/>
<stop offset="0.13" stop-color="#DE9B3C"/>
<stop offset="0.18" stop-color="#D79236"/>
<stop offset="0.26" stop-color="#DE9A3C"/>
<stop offset="0.38" stop-color="#F0B14B"/>
<stop offset="0.45" stop-color="#FCC054"/>
<stop offset="0.56" stop-color="#FCC85D"/>
<stop offset="0.75" stop-color="#FDDD76"/>
<stop offset="0.89" stop-color="#FDF08B"/>
</linearGradient>
<linearGradient id="paint9_linear_264_2720" x1="26.0522" y1="10.4636" x2="20.7541" y2="61.4344" gradientUnits="userSpaceOnUse">
<stop stop-color="#FCC054"/>
<stop offset="0.04" stop-color="#F2B44C"/>
<stop offset="0.13" stop-color="#DE9B3C"/>
<stop offset="0.18" stop-color="#D79236"/>
<stop offset="0.26" stop-color="#DE9A3C"/>
<stop offset="0.38" stop-color="#F0B14B"/>
<stop offset="0.45" stop-color="#FCC054"/>
<stop offset="0.56" stop-color="#FCC85D"/>
<stop offset="0.75" stop-color="#FDDD76"/>
<stop offset="0.89" stop-color="#FDF08B"/>
</linearGradient>
<clipPath id="clip0_264_2720">
<rect width="266" height="76" fill="white"/>
</clipPath>
</defs>
</svg>
