<svg width="500" height="234" viewBox="0 0 500 234" fill="none" xmlns="http://www.w3.org/2000/svg">
<path d="M32.8799 233.776C28.9343 233.776 24.9887 233.118 21.0431 231.803C17.0975 230.488 13.4807 228.515 10.1928 225.885C7.12397 223.035 4.60318 219.418 2.63039 215.034C0.876796 210.65 0 205.499 0 199.581V34.1951C0 28.2767 0.876796 23.1255 2.63039 18.7415C4.60318 14.3575 7.12397 10.8504 10.1928 8.21998C13.4807 5.37039 17.0975 3.28799 21.0431 1.97279C24.9887 0.657595 28.9343 0 32.8799 0H38.7982C42.963 0 47.0182 0.657595 50.9638 1.97279C54.9094 3.28799 58.4166 5.37039 61.4853 8.21998C64.5541 10.8504 66.9653 14.3575 68.7189 18.7415C70.6917 23.1255 71.6781 28.2767 71.6781 34.1951V94.3652H42.415V38.4695C42.415 33.4279 41.867 29.8111 40.771 27.6191C39.8942 25.4271 38.4694 24.3311 36.4967 24.3311H35.1815C33.2087 24.3311 31.6743 25.4271 30.5783 27.6191C29.7015 29.5919 29.2631 33.2087 29.2631 38.4695V195.306C29.2631 204.732 31.2359 209.445 35.1815 209.445H36.4967C40.4422 209.445 42.415 204.732 42.415 195.306V138.753H71.6781V199.581C71.6781 205.499 70.6917 210.65 68.7189 215.034C66.9653 219.418 64.5541 223.035 61.4853 225.885C58.4166 228.515 54.9094 230.488 50.9638 231.803C47.0182 233.118 42.963 233.776 38.7982 233.776H32.8799Z" fill="#254A48"/>
<path d="M152.28 94.694C152.28 101.708 151.184 106.969 148.992 110.476C146.8 113.764 144.06 115.956 140.772 117.052C144.06 117.929 146.8 120.121 148.992 123.628C151.184 126.916 152.28 132.067 152.28 139.082V188.73C152.28 204.513 152.828 215.582 153.924 221.939C155.239 228.077 156.116 231.365 156.554 231.803H127.291C125.538 229.173 124.332 224.46 123.675 217.665C123.236 210.87 123.017 201.225 123.017 188.73V141.712C123.017 132.506 121.154 127.903 117.427 127.903H109.865V231.803H80.6019V1.97279H119.729C128.935 1.97279 136.607 4.93198 142.745 10.8504C149.102 16.7687 152.28 25.0983 152.28 35.8391V94.694ZM117.427 106.202C121.154 106.202 123.017 101.818 123.017 93.05V40.4422C123.017 31.0167 120.935 26.3039 116.77 26.3039H109.865V106.202H117.427Z" fill="#254A48"/>
<path d="M192.707 1.97279V231.803H163.444V1.97279H192.707Z" fill="#254A48"/>
<path d="M234.526 233.776C230.58 233.776 226.635 233.118 222.689 231.803C218.744 230.488 215.127 228.515 211.839 225.885C208.77 223.035 206.249 219.418 204.276 215.034C202.523 210.65 201.646 205.499 201.646 199.581V34.1951C201.646 28.2767 202.523 23.1255 204.276 18.7415C206.249 14.3575 208.77 10.8504 211.839 8.21998C215.127 5.37039 218.744 3.28799 222.689 1.97279C226.635 0.657595 230.58 0 234.526 0H240.444C244.609 0 248.664 0.657595 252.61 1.97279C256.555 3.28799 260.063 5.37039 263.131 8.21998C266.2 10.8504 268.611 14.3575 270.365 18.7415C272.338 23.1255 273.324 28.2767 273.324 34.1951V94.3652H244.061V38.4695C244.061 33.4279 243.513 29.8111 242.417 27.6191C241.54 25.4271 240.115 24.3311 238.143 24.3311H236.828C234.855 24.3311 233.32 25.4271 232.224 27.6191C231.348 29.5919 230.909 33.2087 230.909 38.4695V195.306C230.909 204.732 232.882 209.445 236.828 209.445H238.143C242.088 209.445 244.061 204.732 244.061 195.306V138.753H273.324V199.581C273.324 205.499 272.338 210.65 270.365 215.034C268.611 219.418 266.2 223.035 263.131 225.885C260.063 228.515 256.555 230.488 252.61 231.803C248.664 233.118 244.609 233.776 240.444 233.776H234.526Z" fill="#254A48"/>
<path d="M332.225 113.107L356.885 231.803H330.253L311.84 151.905H311.511V231.803H282.248V1.97279H311.511V85.8165H311.84L330.91 1.97279H357.543L332.225 113.107Z" fill="#254A48"/>
<path d="M392.105 26.3039V106.202H414.135V127.903H392.105V207.472H422.355V231.803H362.842V1.97279H420.053V26.3039H392.105Z" fill="#254A48"/>
<path d="M500 26.3039H477.313V231.803H448.05V26.3039H425.363V1.97279H500V26.3039Z" fill="#254A48"/>
</svg>
