<svg xmlns="http://www.w3.org/2000/svg" width="337" height="165" viewBox="0 0 337 165" fill="none">
  <path d="M22.1532 164.38C19.5465 164.38 16.9399 163.92 14.3332 163C11.7265 162.08 9.34987 160.7 7.2032 158.86C5.20987 157.02 3.59987 154.643 2.3732 151.73C1.14654 148.817 0.533203 145.29 0.533203 141.15V24.08C0.533203 19.94 1.14654 16.4133 2.3732 13.5C3.59987 10.5866 5.20987 8.20998 7.2032 6.36997C9.34987 4.52998 11.7265 3.14998 14.3332 2.22997C16.9399 1.30997 19.5465 0.849976 22.1532 0.849976H26.2932C28.8999 0.849976 31.5065 1.30997 34.1132 2.22997C36.7199 3.14998 39.0199 4.52998 41.0132 6.36997C43.1599 8.20998 44.8465 10.5866 46.0732 13.5C47.2999 16.4133 47.9132 19.94 47.9132 24.08V67.09H29.9732V26.61C29.9732 22.6233 29.5132 19.8633 28.5932 18.33C27.6732 16.7966 26.3699 16.03 24.6832 16.03H23.7632C22.0765 16.03 20.7732 16.8733 19.8532 18.56C18.9332 20.0933 18.4732 22.8533 18.4732 26.84V138.39C18.4732 142.377 18.9332 145.213 19.8532 146.9C20.7732 148.433 22.0765 149.2 23.7632 149.2H24.6832C26.3699 149.2 27.6732 148.433 28.5932 146.9C29.5132 145.213 29.9732 142.377 29.9732 138.39V97.91H47.9132V141.15C47.9132 145.29 47.2999 148.817 46.0732 151.73C44.8465 154.643 43.1599 157.02 41.0132 158.86C39.0199 160.7 36.7199 162.08 34.1132 163C31.5065 163.92 28.8999 164.38 26.2932 164.38H22.1532Z" fill="#1C2C59"/>
  <path d="M102.729 67.09C102.729 71.9967 101.962 75.6767 100.429 78.13C98.8953 80.43 96.9787 81.9633 94.6787 82.73C96.9787 83.3433 98.8953 84.8766 100.429 87.33C101.962 89.63 102.729 93.2333 102.729 98.14V134.25C102.729 139.463 102.805 143.833 102.959 147.36C103.265 150.887 103.572 153.8 103.879 156.1C104.185 158.247 104.492 159.857 104.799 160.93C105.105 162.003 105.335 162.693 105.489 163H87.3187C86.2453 161.16 85.4787 158.017 85.0187 153.57C84.712 148.97 84.5587 142.53 84.5587 134.25V99.75C84.5587 92.85 83.0253 89.4 79.9587 89.4H73.0587V163H55.1187V2.22997H81.1087C87.0887 2.22997 92.1487 4.22331 96.2887 8.20998C100.582 12.1966 102.729 17.87 102.729 25.23V67.09ZM79.9587 76.06C83.0253 76.06 84.5587 72.6866 84.5587 65.94V27.99C84.5587 20.9366 82.7953 17.41 79.2687 17.41H73.0587V76.06H79.9587Z" fill="#1C2C59"/>
  <path d="M129.211 2.22997V163H111.271V2.22997H129.211Z" fill="#1C2C59"/>
  <path d="M158.042 164.38C155.435 164.38 152.829 163.92 150.222 163C147.615 162.08 145.239 160.7 143.092 158.86C141.099 157.02 139.489 154.643 138.262 151.73C137.035 148.817 136.422 145.29 136.422 141.15V24.08C136.422 19.94 137.035 16.4133 138.262 13.5C139.489 10.5866 141.099 8.20998 143.092 6.36997C145.239 4.52998 147.615 3.14998 150.222 2.22997C152.829 1.30997 155.435 0.849976 158.042 0.849976H162.182C164.789 0.849976 167.395 1.30997 170.002 2.22997C172.609 3.14998 174.909 4.52998 176.902 6.36997C179.049 8.20998 180.735 10.5866 181.962 13.5C183.189 16.4133 183.802 19.94 183.802 24.08V67.09H165.862V26.61C165.862 22.6233 165.402 19.8633 164.482 18.33C163.562 16.7966 162.259 16.03 160.572 16.03H159.652C157.965 16.03 156.662 16.8733 155.742 18.56C154.822 20.0933 154.362 22.8533 154.362 26.84V138.39C154.362 142.377 154.822 145.213 155.742 146.9C156.662 148.433 157.965 149.2 159.652 149.2H160.572C162.259 149.2 163.562 148.433 164.482 146.9C165.402 145.213 165.862 142.377 165.862 138.39V97.91H183.802V141.15C183.802 145.29 183.189 148.817 181.962 151.73C180.735 154.643 179.049 157.02 176.902 158.86C174.909 160.7 172.609 162.08 170.002 163C167.395 163.92 164.789 164.38 162.182 164.38H158.042Z" fill="#1C2C59"/>
  <path d="M221.827 79.74L240.687 163H224.127L209.407 103.89H208.947V163H191.007V2.22997H208.947V62.95H209.407L224.587 2.22997H241.147L221.827 79.74Z" fill="#1C2C59"/>
  <path d="M263.303 17.41V75.83H278.943V89.4H263.303V147.82H284.693V163H245.363V2.22997H283.313V17.41H263.303Z" fill="#1C2C59"/>
  <path d="M336.285 17.41H320.875V163H302.935V17.41H287.295V2.22997H336.285V17.41Z" fill="#1C2C59"/>
</svg>