<svg width="514" height="24" viewBox="0 0 514 24" fill="none" xmlns="http://www.w3.org/2000/svg">
<path d="M73.2742 7.3558C72.6109 5.44799 70.8036 4.07801 68.6806 4.07801H68.6362C67.2562 4.07801 66.0124 4.6559 65.1271 5.58361C64.2403 4.6559 62.9966 4.07801 61.618 4.07801H61.5736C60.3605 4.07801 59.2516 4.52491 58.4 5.26461V4.8886C58.3709 4.51413 58.0645 4.21979 57.6862 4.21979H54.4299C54.0316 4.21979 53.71 4.54341 53.71 4.94562V22.7369C53.71 23.1391 54.0316 23.4627 54.4299 23.4627H57.6862C58.0492 23.4627 58.3479 23.1899 58.3954 22.837L58.3938 10.0649C58.3938 10.0202 58.3954 9.97864 58.4 9.93703C58.4521 9.36685 58.8671 8.89837 59.5227 8.83981H59.6437H59.9853H60.1231C60.3973 8.86447 60.6286 8.96155 60.8108 9.10795C61.0942 9.33449 61.252 9.68276 61.252 10.0649L61.2642 22.7739C61.2642 23.1761 61.5874 23.5012 61.9841 23.5012H65.2405C65.6249 23.5012 65.9374 23.193 65.9558 22.8093L65.9542 10.048C65.9527 9.62882 66.1457 9.24973 66.4842 9.02474C66.6512 8.91686 66.8518 8.84444 67.0831 8.82286H67.2041H67.5457H67.6835C68.3881 8.8845 68.8139 9.42232 68.8124 10.048L68.8246 22.7399C68.8246 23.1422 69.1478 23.4658 69.5445 23.4658H72.8009C73.1976 23.4658 73.5208 23.1422 73.5208 22.7399V9.08946C73.5208 8.15868 73.4166 7.76263 73.2742 7.3558Z" fill="white" fill-opacity="0.4"/>
<path d="M51.229 4.26628H49.3664V1.23045C49.3664 1.22736 49.3664 1.22428 49.3664 1.2212C49.3664 0.855974 49.0724 0.560097 48.7093 0.560097C48.6665 0.560097 48.6251 0.566259 48.5853 0.573965C46.5206 1.14415 46.9341 4.02126 43.1646 4.26628H43.0804H42.7986C42.7434 4.26628 42.6914 4.27399 42.6408 4.28477H42.6377L42.6408 4.28632C42.3192 4.35874 42.0771 4.64538 42.0771 4.99057V8.26681C42.0771 8.66594 42.4003 8.99109 42.7986 8.99109H44.7637L44.7607 22.8835C44.7607 23.2796 45.0792 23.6001 45.4729 23.6001H48.6925C49.0846 23.6001 49.4032 23.2796 49.4032 22.8835L49.4047 8.99109H51.229C51.6257 8.99109 51.9489 8.66594 51.9489 8.26681V4.99057C51.9489 4.59144 51.6257 4.26628 51.229 4.26628Z" fill="white" fill-opacity="0.4"/>
<path d="M39.5124 4.26648H36.256C35.8593 4.26648 35.5376 4.59163 35.5376 4.99076V11.7651C35.53 12.1843 35.193 12.5203 34.7749 12.5203H33.4117C32.9889 12.5203 32.6474 12.1781 32.6474 11.7528L32.6351 4.99076C32.6351 4.59163 32.3119 4.26648 31.9152 4.26648H28.6589C28.2606 4.26648 27.939 4.59163 27.939 4.99076V12.4155C27.939 15.2356 29.9378 17.2466 32.7423 17.2466C32.7423 17.2466 34.8469 17.2466 34.9112 17.2589C35.291 17.3021 35.5867 17.6226 35.5867 18.0171C35.5867 18.407 35.2972 18.726 34.9219 18.7738C34.9035 18.7769 34.8867 18.7815 34.8668 18.7846L30.1048 18.8015C29.7065 18.8015 29.3849 19.1267 29.3849 19.5258V22.8005C29.3849 23.2012 29.7065 23.5248 30.1048 23.5248H35.4289C38.2349 23.5248 40.2323 21.5153 40.2323 18.6936V4.99076C40.2323 4.59163 39.9106 4.26648 39.5124 4.26648Z" fill="white" fill-opacity="0.4"/>
<path d="M7.99396 10.2694V11.7981V12.2912C7.99396 12.715 7.65239 13.0602 7.23118 13.0602L5.16494 13.0617V9.01036H7.23118C7.65239 9.01036 7.99396 9.35247 7.99396 9.77779V10.2694ZM8.28038 4.26551H1.16265C0.77207 4.26551 0.456543 4.58451 0.456543 4.97593V8.1859C0.456543 8.19207 0.458075 8.19823 0.458075 8.2044C0.458075 8.21981 0.456543 8.23522 0.456543 8.24909V18.5447V22.778C0.456543 23.1725 0.750626 23.4945 1.11517 23.5038H1.17643H4.43279C4.8295 23.5038 5.15269 23.1802 5.15269 22.7795L5.16494 17.8004H8.28038C10.8873 17.8004 12.7039 15.9805 12.7039 13.3468V8.72527C12.7039 6.09164 10.8873 4.26551 8.28038 4.26551Z" fill="white" fill-opacity="0.4"/>
<path d="M21.5045 17.9613V18.4729C21.5045 18.5145 21.4984 18.5546 21.4922 18.5931C21.4846 18.6301 21.4738 18.6656 21.4616 18.6995C21.3605 18.9861 21.0756 19.1941 20.7371 19.1941H19.3816C18.9588 19.1941 18.6142 18.8705 18.6142 18.4729V17.855C18.6142 17.8473 18.6127 17.8396 18.6127 17.8319L18.6142 16.1876V16.1845V16.0027V15.6729L18.6157 15.6682C18.6173 15.2722 18.9588 14.9517 19.3816 14.9517H20.7371C21.1614 14.9517 21.5045 15.2737 21.5045 15.6729V17.9613ZM20.9868 4.28462H16.4683C16.0685 4.28462 15.7453 4.58975 15.7453 4.96422V6.23866C15.7453 6.24636 15.7469 6.25561 15.7469 6.26331C15.7469 6.27256 15.7453 6.28181 15.7453 6.29105V8.03704C15.7453 8.43309 16.0884 8.75671 16.5112 8.75671H20.8137C21.1537 8.81064 21.4233 9.06029 21.4616 9.45017V9.87241C21.4233 10.2438 21.1568 10.515 20.8321 10.5458H18.7015C15.8679 10.5458 13.8491 12.4398 13.8491 15.0996V18.812V18.909C13.8491 21.5535 15.5845 23.4351 18.3982 23.4351H24.3029C25.3628 23.4351 26.2221 22.6276 26.2221 21.6336V9.20207C26.2221 6.1878 24.6781 4.28462 20.9868 4.28462Z" fill="white" fill-opacity="0.4"/>
<path d="M107.883 14.7269C109.352 8.53622 105.5 2.3327 99.2783 0.870915C93.0569 -0.59087 86.8225 3.24262 85.3534 9.43326C83.8844 15.6239 87.7369 21.8274 93.9584 23.2892C100.18 24.751 106.414 20.9175 107.883 14.7269Z" fill="white" fill-opacity="0.4"/>
<path d="M143.582 18.6624V14.4799C143.582 13.4504 143.194 12.9356 142.224 12.9356C141.836 12.9356 141.383 13 141.125 13.0643V19.1771C141.125 19.3702 140.931 19.5632 140.737 19.5632H139.25C139.056 19.5632 138.862 19.3702 138.862 19.1771V12.0348C138.862 11.7774 139.056 11.5844 139.25 11.52C140.219 11.1983 141.189 11.0053 142.224 11.0053C144.552 11.0053 145.845 12.2278 145.845 14.4799V19.2415C145.845 19.4345 145.651 19.6276 145.457 19.6276H144.552C143.97 19.6276 143.582 19.1771 143.582 18.6624ZM149.402 16.1529L149.337 16.732C149.337 17.5042 149.855 17.9546 150.695 17.9546C151.342 17.9546 151.924 17.7615 152.571 17.4398C152.635 17.4398 152.7 17.3755 152.765 17.3755C152.894 17.3755 152.959 17.4398 153.023 17.5042C153.088 17.5685 153.217 17.7615 153.217 17.7615C153.347 17.9546 153.476 18.212 153.476 18.405C153.476 18.7267 153.282 19.0485 153.023 19.1771C152.312 19.5632 151.471 19.7563 150.566 19.7563C149.531 19.7563 148.691 19.4989 148.044 18.9841C147.397 18.405 147.009 17.6329 147.009 16.6677V14.1582C147.009 12.1635 148.303 10.9409 150.501 10.9409C152.635 10.9409 153.864 12.0992 153.864 14.1582V15.7025C153.864 15.8955 153.67 16.0886 153.476 16.0886H149.402V16.1529ZM149.337 14.7373H151.795V14.0939C151.795 13.3217 151.342 12.807 150.566 12.807C149.79 12.807 149.337 13.2574 149.337 14.0939V14.7373ZM165.827 16.1529L165.762 16.732C165.762 17.5042 166.28 17.9546 167.12 17.9546C167.767 17.9546 168.349 17.7615 168.996 17.4398C169.06 17.4398 169.125 17.3755 169.19 17.3755C169.319 17.3755 169.384 17.4398 169.448 17.5042C169.513 17.5685 169.642 17.7615 169.642 17.7615C169.772 17.9546 169.901 18.212 169.901 18.405C169.901 18.7267 169.707 19.0485 169.448 19.1771C168.737 19.5632 167.896 19.7563 166.991 19.7563C165.956 19.7563 165.116 19.4989 164.469 18.9841C163.822 18.405 163.434 17.6329 163.434 16.6677V14.1582C163.434 12.1635 164.728 10.9409 166.926 10.9409C169.06 10.9409 170.289 12.0992 170.289 14.1582V15.7025C170.289 15.8955 170.095 16.0886 169.901 16.0886H165.827V16.1529ZM165.762 14.7373H168.22V14.0939C168.22 13.3217 167.767 12.807 166.991 12.807C166.215 12.807 165.762 13.2574 165.762 14.0939V14.7373ZM127.739 19.6276H128.644C128.838 19.6276 129.032 19.4345 129.032 19.2415V14.4799C129.032 12.2922 127.868 11.0053 125.928 11.0053C125.346 11.0053 124.7 11.134 124.312 11.2627V8.88189C124.312 8.36712 123.859 7.91671 123.342 7.91671H122.436C122.242 7.91671 122.048 8.10974 122.048 8.30278V19.2415C122.048 19.4345 122.242 19.6276 122.436 19.6276H123.924C124.118 19.6276 124.312 19.4345 124.312 19.2415V13.193C124.635 13.0643 125.088 13 125.411 13C126.381 13 126.769 13.4504 126.769 14.5443V18.7267C126.834 19.1771 127.222 19.6276 127.739 19.6276ZM137.504 14.2226V16.6033C137.504 18.598 136.146 19.8206 133.882 19.8206C131.684 19.8206 130.261 18.598 130.261 16.6033V14.2226C130.261 12.2278 131.619 11.0053 133.882 11.0053C136.146 11.0053 137.504 12.2278 137.504 14.2226ZM135.24 14.2226C135.24 13.4504 134.788 12.9356 133.947 12.9356C133.106 12.9356 132.654 13.3861 132.654 14.2226V16.6033C132.654 17.3755 133.106 17.8259 133.947 17.8259C134.788 17.8259 135.24 17.3755 135.24 16.6033V14.2226ZM120.82 13.1287C120.82 15.1877 119.268 16.6033 117.199 16.6033C116.681 16.6033 116.229 16.539 115.776 16.3459V19.2415C115.776 19.4345 115.582 19.6276 115.388 19.6276H113.901C113.707 19.6276 113.513 19.4345 113.513 19.2415V9.01058C113.513 8.7532 113.707 8.56016 113.901 8.49581C114.871 8.17409 115.841 7.98105 116.875 7.98105C119.203 7.98105 120.82 9.39665 120.82 11.5844V13.1287ZM118.492 11.4557C118.492 10.4262 117.781 9.91141 116.811 9.91141C116.229 9.91141 115.841 10.1044 115.841 10.1044V14.3512C116.229 14.5443 116.423 14.6086 116.875 14.6086C117.845 14.6086 118.556 14.0295 118.556 13.0643V11.4557H118.492ZM162.594 13.1287C162.594 15.1877 161.042 16.6033 158.973 16.6033C158.455 16.6033 158.003 16.539 157.55 16.3459V19.2415C157.55 19.4345 157.356 19.6276 157.162 19.6276H155.675C155.481 19.6276 155.287 19.4345 155.287 19.2415V9.01058C155.287 8.7532 155.481 8.56016 155.675 8.49581C156.645 8.17409 157.615 7.98105 158.649 7.98105C160.977 7.98105 162.594 9.39665 162.594 11.5844V13.1287ZM160.266 11.4557C160.266 10.4262 159.555 9.91141 158.585 9.91141C158.003 9.91141 157.615 10.1044 157.615 10.1044V14.3512C158.003 14.5443 158.197 14.6086 158.649 14.6086C159.619 14.6086 160.331 14.0295 160.331 13.0643V11.4557H160.266Z" fill="white" fill-opacity="0.4"/>
<path d="M101.873 9.07492C101.873 8.62451 101.485 8.23843 101.032 8.23843H99.4801L95.9235 4.18467C95.6002 3.7986 95.0829 3.66991 94.5655 3.7986L93.3369 4.18467C93.1429 4.24902 93.0782 4.5064 93.2076 4.63509L97.0875 8.30278H91.2029C91.0089 8.30278 90.8796 8.43147 90.8796 8.62451V9.26796C90.8796 9.71838 91.2676 10.1044 91.7202 10.1044H92.6256V13.193C92.6256 15.5095 93.8542 16.8607 95.9235 16.8607C96.5702 16.8607 97.0875 16.7964 97.7341 16.539V18.598C97.7341 19.1771 98.1868 19.6276 98.7688 19.6276H99.6741C99.8681 19.6276 100.062 19.4345 100.062 19.2415V10.0401H101.549C101.743 10.0401 101.873 9.91141 101.873 9.71838V9.07492ZM97.7341 14.6086C97.3462 14.8017 96.8288 14.866 96.4408 14.866C95.4062 14.866 94.8889 14.3512 94.8889 13.193V10.1044H97.7341V14.6086Z" fill="black"/>
<path d="M182.296 20.3531H182.748L182.328 22.2483C182.265 22.5295 182.277 22.7412 182.363 22.8824C182.449 23.0238 182.609 23.0944 182.843 23.0944C183.076 23.0944 183.266 23.0238 183.415 22.8824C183.564 22.7412 183.67 22.5295 183.732 22.2483L184.153 20.3531H184.611L184.18 22.2952C184.087 22.7172 183.92 23.0331 183.681 23.2425C183.442 23.4523 183.128 23.557 182.74 23.557C182.352 23.557 182.086 23.4525 181.941 23.2436C181.796 23.0349 181.771 22.7186 181.865 22.2952L182.296 20.3531Z" fill="white" fill-opacity="0.4"/>
<path d="M184.551 23.474L185.271 20.2295L186.64 22.1374C186.676 22.1912 186.713 22.2488 186.75 22.31C186.786 22.3712 186.824 22.4399 186.862 22.5168L187.342 20.3531H187.766L187.046 23.5951L185.649 21.6532C185.612 21.6008 185.577 21.5455 185.544 21.4871C185.512 21.4288 185.482 21.3676 185.455 21.3038L184.973 23.474H184.551Z" fill="white" fill-opacity="0.4"/>
<path d="M187.728 23.473L188.421 20.3522H188.879L188.186 23.473H187.728Z" fill="white" fill-opacity="0.4"/>
<path d="M188.846 23.473L189.539 20.3522H191.113L191.017 20.7826H189.902L189.729 21.5607H190.845L190.746 22.0062H189.63L189.305 23.473H188.846Z" fill="white" fill-opacity="0.4"/>
<path d="M190.927 23.473L191.619 20.3522H192.078L191.385 23.473H190.927Z" fill="white" fill-opacity="0.4"/>
<path d="M192.041 23.473L192.734 20.3522H194.308L194.212 20.7826H193.097L192.923 21.565H194.038L193.94 22.0106H192.824L192.6 23.0189H193.716L193.615 23.473H192.041Z" fill="white" fill-opacity="0.4"/>
<path d="M194.703 23.0145H195.088C195.3 23.0145 195.462 22.9988 195.575 22.9676C195.688 22.9364 195.792 22.8837 195.887 22.8099C196.016 22.7092 196.124 22.5837 196.21 22.4337C196.297 22.2838 196.362 22.1091 196.406 21.9101C196.45 21.7111 196.462 21.5369 196.442 21.3873C196.422 21.2371 196.37 21.1117 196.286 21.0107C196.223 20.9371 196.139 20.8842 196.035 20.8528C195.931 20.8218 195.761 20.8061 195.524 20.8061H195.359H195.193L194.703 23.0145ZM194.143 23.473L194.835 20.352H195.454C195.856 20.352 196.134 20.3742 196.288 20.419C196.441 20.4639 196.568 20.539 196.668 20.6441C196.801 20.7819 196.885 20.9589 196.921 21.1747C196.957 21.3908 196.945 21.6374 196.883 21.9145C196.822 22.1916 196.725 22.4372 196.593 22.651C196.462 22.865 196.299 23.0415 196.105 23.1807C195.958 23.286 195.801 23.3609 195.634 23.4059C195.467 23.4505 195.217 23.473 194.884 23.473H194.761H194.143Z" fill="white" fill-opacity="0.4"/>
<path d="M199.117 21.6568H199.235C199.489 21.6568 199.665 21.626 199.764 21.565C199.862 21.504 199.928 21.3959 199.963 21.241C200 21.0747 199.98 20.9573 199.905 20.8893C199.829 20.8211 199.671 20.7867 199.428 20.7867H199.31L199.117 21.6568ZM198.996 22.0721L198.685 23.473H198.255L198.948 20.3522H199.642C199.847 20.3522 199.996 20.3645 200.087 20.3893C200.178 20.414 200.254 20.4551 200.313 20.512C200.386 20.5845 200.433 20.6822 200.456 20.805C200.479 20.9281 200.474 21.0634 200.441 21.211C200.408 21.3589 200.353 21.4953 200.275 21.6205C200.197 21.7455 200.106 21.8437 200.002 21.9145C199.917 21.9715 199.824 22.012 199.722 22.036C199.619 22.0603 199.465 22.0721 199.26 22.0721H199.17H198.996Z" fill="white" fill-opacity="0.4"/>
<path d="M201.007 22.2473H201.793L201.661 21.5352C201.655 21.4899 201.649 21.4377 201.644 21.3786C201.639 21.3196 201.636 21.2538 201.634 21.1814C201.604 21.2496 201.573 21.3132 201.543 21.3723C201.512 21.4312 201.483 21.4855 201.453 21.5352L201.007 22.2473ZM202.002 23.473L201.861 22.6694H200.743L200.237 23.473H199.756L201.842 20.2286L202.486 23.473H202.002Z" fill="white" fill-opacity="0.4"/>
<path d="M203.143 23.473L203.46 22.0446L202.886 20.3522H203.368L203.724 21.4116C203.732 21.4387 203.742 21.4742 203.753 21.5182C203.765 21.5623 203.776 21.6097 203.787 21.661C203.815 21.6113 203.845 21.5641 203.874 21.5202C203.904 21.4761 203.934 21.4357 203.964 21.3987L204.803 20.3522H205.262L203.915 22.0446L203.598 23.473H203.143Z" fill="white" fill-opacity="0.4"/>
<path d="M207.517 21.9328C207.517 21.9087 207.524 21.8421 207.537 21.7326C207.546 21.6416 207.554 21.5662 207.56 21.5064C207.532 21.5776 207.5 21.6488 207.463 21.7197C207.426 21.7908 207.384 21.8632 207.335 21.9372L206.228 23.6001L205.867 21.9032C205.851 21.8334 205.84 21.7659 205.832 21.7007C205.824 21.6353 205.819 21.5706 205.816 21.5064C205.8 21.572 205.78 21.6404 205.756 21.7123C205.732 21.7841 205.703 21.8592 205.668 21.9372L205.025 23.4742H204.603L205.992 20.221L206.387 22.1909C206.392 22.2221 206.401 22.2741 206.411 22.3466C206.421 22.419 206.433 22.5086 206.447 22.615C206.494 22.5255 206.561 22.412 206.65 22.2741C206.673 22.2371 206.691 22.2087 206.703 22.1888L207.953 20.221L207.913 23.4742H207.487L207.517 21.9328Z" fill="white" fill-opacity="0.4"/>
<path d="M208.28 23.473L208.973 20.3522H210.547L210.452 20.7826H209.336L209.162 21.565H210.278L210.179 22.0106H209.063L208.84 23.0189H209.955L209.854 23.473H208.28Z" fill="white" fill-opacity="0.4"/>
<path d="M210.381 23.474L211.101 20.2295L212.47 22.1374C212.506 22.1912 212.543 22.2488 212.58 22.31C212.616 22.3712 212.654 22.4399 212.692 22.5168L213.172 20.3531H213.596L212.876 23.5951L211.479 21.6532C211.442 21.6008 211.407 21.5455 211.374 21.4871C211.342 21.4288 211.312 21.3676 211.285 21.3038L210.803 23.474H210.381Z" fill="white" fill-opacity="0.4"/>
<path d="M215.059 20.7826L214.462 23.473H214.003L214.6 20.7826H213.851L213.946 20.3522H215.9L215.804 20.7826H215.059Z" fill="white" fill-opacity="0.4"/>
<path d="M215.534 22.8492L215.941 22.6619C215.946 22.8009 215.985 22.9072 216.062 22.9804C216.138 23.0537 216.248 23.0902 216.392 23.0902C216.528 23.0902 216.646 23.0483 216.744 22.9644C216.843 22.8806 216.908 22.7683 216.94 22.6277C216.98 22.4441 216.879 22.2807 216.636 22.1374C216.602 22.1161 216.576 22.1004 216.558 22.0904C216.284 21.9227 216.111 21.7709 216.037 21.6352C215.964 21.4995 215.949 21.3336 215.993 21.1376C216.049 20.8832 216.173 20.6771 216.364 20.5193C216.555 20.3616 216.777 20.2826 217.03 20.2826C217.238 20.2826 217.403 20.327 217.523 20.4159C217.643 20.5049 217.712 20.6323 217.729 20.7986L217.325 21.0032C217.29 20.9052 217.244 20.8335 217.187 20.7878C217.13 20.7423 217.057 20.7196 216.97 20.7196C216.847 20.7196 216.741 20.7554 216.652 20.8261C216.564 20.8973 216.507 20.9925 216.48 21.112C216.438 21.2996 216.559 21.4743 216.842 21.6363C216.863 21.6489 216.88 21.6592 216.893 21.6662C217.14 21.8081 217.301 21.9472 217.374 22.0829C217.448 22.2189 217.463 22.3883 217.418 22.5913C217.352 22.8871 217.216 23.1219 217.009 23.2959C216.802 23.4699 216.555 23.557 216.269 23.557C216.029 23.557 215.845 23.496 215.719 23.3737C215.593 23.2515 215.531 23.0768 215.534 22.8492Z" fill="white" fill-opacity="0.4"/>
<path d="M218.921 23.473L219.614 20.3522H220.073L219.38 23.473H218.921Z" fill="white" fill-opacity="0.4"/>
<path d="M220.04 23.474L220.76 20.2295L222.128 22.1374C222.165 22.1912 222.202 22.2488 222.238 22.31C222.275 22.3712 222.312 22.4399 222.35 22.5168L222.83 20.3531H223.254L222.535 23.5951L221.137 21.6532C221.1 21.6008 221.065 21.5455 221.032 21.4871C221 21.4288 220.97 21.3676 220.943 21.3038L220.461 23.474H220.04Z" fill="white" fill-opacity="0.4"/>
<path d="M224.718 20.7826L224.121 23.473H223.663L224.26 20.7826H223.51L223.606 20.3522H225.559L225.464 20.7826H224.718Z" fill="white" fill-opacity="0.4"/>
<path d="M225.218 23.473L225.91 20.3522H227.484L227.389 20.7826H226.273L226.1 21.565H227.215L227.116 22.0106H226.001L225.777 23.0189H226.893L226.792 23.473H225.218Z" fill="white" fill-opacity="0.4"/>
<path d="M228.175 21.6822H228.258C228.5 21.6822 228.669 21.6512 228.762 21.5886C228.856 21.526 228.92 21.4153 228.955 21.2559C228.994 21.0841 228.978 20.9628 228.908 20.8926C228.838 20.8219 228.688 20.7869 228.457 20.7869H228.374L228.175 21.6822ZM228.058 22.0765L227.748 23.473H227.319L228.012 20.3522H228.651C228.839 20.3522 228.981 20.3656 229.079 20.3927C229.176 20.4197 229.254 20.4643 229.314 20.527C229.384 20.6021 229.43 20.6998 229.451 20.8191C229.472 20.9383 229.467 21.0691 229.435 21.211C229.38 21.4611 229.282 21.657 229.141 21.7985C229.001 21.9397 228.821 22.0249 228.601 22.0531L229.257 23.473H228.739L228.11 22.0765H228.058Z" fill="white" fill-opacity="0.4"/>
<path d="M229.528 23.473L230.221 20.3522H231.795L231.7 20.7826H230.584L230.411 21.5607H231.527L231.428 22.0062H230.312L229.987 23.473H229.528Z" fill="white" fill-opacity="0.4"/>
<path d="M232.326 22.2473H233.112L232.981 21.5352C232.974 21.4899 232.969 21.4377 232.964 21.3786C232.959 21.3196 232.956 21.2538 232.954 21.1814C232.923 21.2496 232.892 21.3132 232.862 21.3723C232.832 21.4312 232.802 21.4855 232.773 21.5352L232.326 22.2473ZM233.322 23.473L233.18 22.6694H232.063L231.557 23.473H231.075L233.161 20.2286L233.805 23.473H233.322Z" fill="white" fill-opacity="0.4"/>
<path d="M236.791 21.112C236.688 20.9898 236.571 20.8982 236.44 20.837C236.31 20.7762 236.164 20.7453 236.005 20.7453C235.697 20.7453 235.422 20.8548 235.18 21.0736C234.938 21.2925 234.778 21.576 234.701 21.9243C234.626 22.2612 234.659 22.5388 234.799 22.7576C234.938 22.9765 235.151 23.0862 235.437 23.0862C235.605 23.0862 235.771 23.0534 235.936 22.988C236.102 22.9226 236.268 22.8239 236.436 22.6915L236.309 23.2651C236.164 23.3631 236.013 23.4364 235.858 23.4846C235.702 23.5329 235.539 23.557 235.37 23.557C235.154 23.557 234.963 23.518 234.797 23.4398C234.632 23.3617 234.496 23.2468 234.391 23.0944C234.287 22.9453 234.22 22.7696 234.192 22.5668C234.163 22.3645 234.174 22.1487 234.224 21.9197C234.275 21.6911 234.36 21.4762 234.478 21.2751C234.597 21.0739 234.743 20.8973 234.917 20.7453C235.091 20.5918 235.277 20.4758 235.476 20.3967C235.674 20.318 235.879 20.2784 236.09 20.2784C236.255 20.2784 236.407 20.3052 236.546 20.3586C236.684 20.4116 236.812 20.4922 236.93 20.6006L236.791 21.112Z" fill="white" fill-opacity="0.4"/>
<path d="M236.836 23.473L237.529 20.3522H239.103L239.008 20.7826H237.892L237.718 21.565H238.834L238.735 22.0106H237.62L237.396 23.0189H238.511L238.41 23.473H236.836Z" fill="white" fill-opacity="0.4"/>
<path d="M228.471 17.6337H225.319L229.703 0.56003H232.855L228.471 17.6337Z" fill="white" fill-opacity="0.4"/>
<path d="M226.835 1.09869C226.616 0.773808 226.279 0.609867 225.821 0.609867H208.488L207.63 3.95391H210.784V3.95197H223.398L222.48 7.52552H209.866L209.867 7.51812H206.714L204.098 17.7048H207.252L209.008 10.8676H223.188C223.63 10.8676 224.047 10.7047 224.439 10.379C224.83 10.0529 225.088 9.65076 225.211 9.17057L226.967 2.33195C227.095 1.83572 227.051 1.42393 226.835 1.09869Z" fill="white" fill-opacity="0.4"/>
<path d="M202.261 16.5671C202.087 17.2431 201.516 17.7108 200.866 17.7108H184.602C184.159 17.7108 183.83 17.5479 183.613 17.2225C183.397 16.8968 183.35 16.4938 183.474 16.0138L187.442 0.60915H190.597L187.053 14.3678H199.673L203.218 0.60915H206.372L202.261 16.5671Z" fill="white" fill-opacity="0.4"/>
<path d="M238.299 0.591806L242.289 9.15075L233.901 17.7074L238.299 0.591806Z" fill="white" fill-opacity="0.4"/>
<path d="M235.501 0.591806L239.488 9.15075L231.096 17.7074L235.501 0.591806Z" fill="white" fill-opacity="0.4"/>
<g clip-path="url(#clip0_264_3061)">
<path d="M279.962 11.8161V18.5698H277.92V1.89101H283.336C283.983 1.87684 284.625 1.99714 285.227 2.24497C285.829 2.49279 286.378 2.86324 286.843 3.33492C287.313 3.77797 287.686 4.32132 287.939 4.92846C288.192 5.53559 288.318 6.19244 288.308 6.85487C288.322 7.52083 288.198 8.18198 287.945 8.79298C287.692 9.40398 287.316 9.9504 286.843 10.3948C285.896 11.3423 284.727 11.8156 283.336 11.8147H279.962V11.8161ZM279.962 3.94443V9.76664H283.387C283.762 9.77832 284.136 9.70765 284.484 9.55916C284.832 9.41067 285.146 9.18762 285.407 8.90429C285.667 8.63938 285.874 8.32252 286.015 7.97245C286.155 7.62238 286.228 7.24621 286.228 6.86618C286.228 6.48615 286.155 6.10998 286.015 5.75991C285.874 5.40984 285.667 5.09298 285.407 4.82807C285.15 4.53877 284.836 4.31026 284.488 4.15768C284.14 4.00511 283.764 3.93197 283.387 3.94309H279.962V3.94443Z" fill="white" fill-opacity="0.4"/>
<path d="M293.014 6.7854C294.523 6.7854 295.714 7.20859 296.588 8.05498C297.461 8.90136 297.898 10.0618 297.897 11.5363V18.5696H295.944V16.9859H295.855C295.009 18.2901 293.885 18.9422 292.481 18.9422C291.283 18.9422 290.28 18.5696 289.474 17.8243C289.087 17.4823 288.777 17.0539 288.568 16.5704C288.358 16.087 288.255 15.5606 288.264 15.0297C288.264 13.8488 288.689 12.9097 289.54 12.2124C290.39 11.515 291.526 11.1655 292.946 11.1637C294.159 11.1637 295.158 11.3966 295.942 11.8624V11.3726C295.945 11.0107 295.87 10.6527 295.724 10.3247C295.578 9.99672 295.365 9.7069 295.099 9.47626C294.559 8.96508 293.855 8.68615 293.128 8.69509C291.987 8.69509 291.085 9.1999 290.42 10.2095L288.621 9.02113C289.611 7.53064 291.075 6.7854 293.014 6.7854ZM290.372 15.0762C290.37 15.3489 290.431 15.618 290.549 15.8611C290.667 16.1041 290.838 16.3141 291.049 16.4736C291.501 16.8463 292.061 17.0438 292.636 17.0325C293.497 17.031 294.323 16.6711 294.933 16.0317C295.609 15.3637 295.947 14.5798 295.947 13.6802C295.311 13.1479 294.423 12.8818 293.284 12.8818C292.454 12.8818 291.763 13.0916 291.209 13.5112C290.649 13.9371 290.372 14.4548 290.372 15.0762Z" fill="white" fill-opacity="0.4"/>
<path d="M309.108 7.15796L302.29 23.5999H300.182L302.712 17.8469L298.229 7.15796H300.448L303.689 15.3556H303.733L306.885 7.15796H309.108Z" fill="white" fill-opacity="0.4"/>
<path d="M271.711 10.3599C271.712 9.70695 271.659 9.05513 271.553 8.41162H262.941V12.1019H267.874C267.773 12.6913 267.559 13.2531 267.246 13.7536C266.933 14.254 266.526 14.6826 266.05 15.0137V17.4091H268.994C270.718 15.7416 271.711 13.2757 271.711 10.3599Z" fill="white" fill-opacity="0.4"/>
<path d="M262.942 19.7235C265.406 19.7235 267.481 18.8744 268.995 17.4105L266.051 15.0151C265.231 15.598 264.176 15.9307 262.942 15.9307C260.56 15.9307 258.538 14.2459 257.815 11.9756H254.783V14.4442C255.543 16.0311 256.708 17.3652 258.149 18.2974C259.59 19.2297 261.249 19.7234 262.942 19.7235Z" fill="white" fill-opacity="0.4"/>
<path d="M257.815 11.9758C257.432 10.7861 257.432 9.49777 257.815 8.3081V5.83948H254.782C254.143 7.17447 253.81 8.64785 253.81 10.1419C253.81 11.636 254.143 13.1094 254.782 14.4444L257.815 11.9758Z" fill="white" fill-opacity="0.4"/>
<path d="M262.942 4.35296C264.244 4.33063 265.503 4.84691 266.445 5.79021L269.052 3.05543C267.399 1.42665 265.209 0.532413 262.942 0.560199C261.249 0.56028 259.59 1.054 258.149 1.98623C256.708 2.91846 255.543 4.25251 254.783 5.83945L257.815 8.30807C258.538 6.03774 260.56 4.35296 262.942 4.35296Z" fill="white" fill-opacity="0.4"/>
</g>
<path d="M397.024 10.7696H394.409C390.119 10.7696 385.83 10.7696 381.54 10.7696C381.148 10.7696 380.771 10.7435 380.462 10.4755C380.011 10.0825 379.993 9.59696 380.147 9.07504C380.582 7.59705 381.019 6.12093 381.444 4.64107C381.644 3.94456 381.814 3.24058 382.002 2.54033C382.34 1.27988 383.232 0.608578 384.571 0.608578C390.702 0.608578 396.832 0.605468 402.962 0.599243C403.347 0.599243 403.417 0.671135 403.302 1.02499C403.042 1.83355 402.802 2.64863 402.592 3.47025C402.502 3.82411 402.37 3.95763 401.959 3.95576C396.533 3.93895 391.107 3.95109 385.681 3.93148C385.2 3.93148 385.024 4.0734 384.92 4.50662C384.717 5.34692 384.474 6.18722 384.203 7.00884C384.071 7.40751 384.185 7.4682 384.573 7.4682C389.486 7.45886 394.399 7.45731 399.312 7.46353C399.423 7.46353 399.536 7.46353 399.647 7.46353C400.712 7.48501 401.241 8.13297 400.956 9.12359C400.712 9.96389 400.444 10.8042 400.203 11.6445C399.818 12.9703 399.459 14.3054 399.101 15.6406C398.757 16.9225 397.892 17.5368 396.516 17.5368C390.417 17.5368 384.319 17.539 378.22 17.5434C377.824 17.5434 377.68 17.5107 377.836 17.0644C378.117 16.2633 378.326 15.4379 378.536 14.6154C378.618 14.2914 378.763 14.1887 379.113 14.1896C383.946 14.204 388.78 14.2071 393.614 14.199C394.302 14.199 394.99 14.1896 395.679 14.2036C395.947 14.2093 396.048 14.1383 396.119 13.8619C396.388 12.8526 396.705 11.8517 397.024 10.7696Z" fill="white" fill-opacity="0.4"/>
<path d="M349.571 9.66608C348.988 10.1721 348.408 10.6838 347.82 11.1851C347.051 11.8387 346.234 12.4559 345.512 13.1552C344.955 13.6911 344.387 14.2158 343.815 14.7359C342.771 15.6798 341.706 16.5976 340.621 17.5546L335.107 8.42337C334.879 9.18711 334.673 9.85654 334.479 10.5288C334.15 11.6735 333.825 12.8194 333.503 13.9665C333.215 14.9758 332.921 15.9823 332.657 16.9963C332.561 17.3585 332.465 17.5835 331.989 17.5565C331.124 17.506 330.258 17.5285 329.393 17.5481C329.085 17.5555 328.998 17.4902 329.088 17.1895C329.531 15.6957 329.91 14.1831 330.415 12.7079C330.763 11.6912 331.017 10.6539 331.304 9.62686C331.592 8.59983 331.865 7.58307 332.149 6.56258C332.696 4.59535 333.266 2.63559 333.858 0.560059C334.024 0.826153 334.146 1.01382 334.262 1.20242C336.532 4.84744 338.801 8.49433 341.067 12.1431C341.252 12.4409 341.355 12.4381 341.615 12.2364C342.474 11.5549 343.357 10.8929 344.179 10.1824C345.82 8.75575 347.505 7.3814 349.211 6.03413C350.237 5.22184 351.224 4.36287 352.256 3.55619C353.389 2.67201 354.485 1.729 355.574 0.786938C355.633 0.74843 355.695 0.714109 355.759 0.684237C355.516 1.54414 355.294 2.34989 355.064 3.15378C354.833 3.95766 354.583 4.78582 354.346 5.60277C354.008 6.77296 353.672 7.9472 353.338 9.12548C352.78 11.088 352.224 13.0512 351.669 15.015C351.447 15.7937 351.218 16.5705 351.004 17.3492C351.001 17.3796 350.991 17.4091 350.976 17.4359C350.961 17.4626 350.94 17.486 350.915 17.5045C350.89 17.5231 350.861 17.5365 350.831 17.5438C350.8 17.5511 350.768 17.5523 350.737 17.5471C349.745 17.5415 348.753 17.5387 347.757 17.5471C347.408 17.5471 347.517 17.3753 347.571 17.1867C348.073 15.4128 348.555 13.6323 349.077 11.8649C349.284 11.1655 349.508 10.4728 349.649 9.75757C349.664 9.74852 349.677 9.73666 349.688 9.72266C349.698 9.70867 349.705 9.69283 349.709 9.67607C349.713 9.6593 349.714 9.64194 349.71 9.625C349.707 9.60806 349.701 9.59187 349.691 9.57738L349.571 9.66608Z" fill="white" fill-opacity="0.4"/>
<path d="M368.705 0.61056C371.762 0.61056 374.819 0.61056 377.876 0.61056C379.115 0.61056 379.638 1.27066 379.311 2.41626C378.854 4.01096 378.416 5.61219 377.929 7.19848C377.745 7.79323 377.578 8.39078 377.409 8.98926C377.081 10.1489 376.225 10.7632 374.987 10.7688C370.025 10.7688 365.063 10.7753 360.102 10.7585C359.687 10.7585 359.536 10.8799 359.429 11.2562C358.887 13.2384 358.305 15.2131 357.755 17.1896C357.677 17.4697 357.563 17.5556 357.274 17.5481C356.377 17.5276 355.48 17.5276 354.582 17.5481C354.26 17.5556 354.162 17.4996 354.258 17.1691C355.165 14.0494 356.062 10.9275 356.95 7.8035C357.032 7.51687 357.174 7.46458 357.455 7.46552C361.745 7.4705 366.034 7.46832 370.323 7.45898C371.555 7.45898 372.788 7.44964 374.02 7.44591C374.212 7.44591 374.39 7.47205 374.46 7.21249C374.725 6.23121 374.993 5.2518 375.298 4.28079C375.41 3.92319 375.241 3.94187 374.988 3.94374C374.043 3.95121 373.099 3.94374 372.155 3.94374C367.625 3.94374 363.095 3.9344 358.566 3.95494C358.069 3.95494 358.066 3.81862 358.182 3.44143C358.446 2.60766 358.699 1.7683 358.903 0.920537C358.972 0.633902 359.086 0.60309 359.339 0.604024C362.462 0.612738 365.584 0.614917 368.705 0.61056Z" fill="white" fill-opacity="0.4"/>
<path d="M323.851 17.5415C323.403 17.5415 322.954 17.5293 322.505 17.5415C322.208 17.5527 322.102 17.5032 322.207 17.1801C322.474 16.3623 322.711 15.536 322.943 14.7078C323.332 13.3138 323.697 11.9133 324.096 10.5213C324.592 8.77344 325.112 7.03216 325.615 5.28621C326.034 3.83436 326.455 2.38158 326.852 0.9232C326.922 0.666443 327.044 0.614158 327.281 0.616959C328.209 0.627229 329.139 0.6403 330.069 0.616959C330.426 0.607622 330.418 0.728062 330.338 0.984819C329.805 2.67102 329.343 4.37308 328.844 6.06301C328.324 7.8183 327.855 9.59039 327.361 11.355C326.923 12.9152 326.47 14.4707 326.022 16.0233C325.909 16.4155 325.724 16.7861 325.694 17.2035C325.676 17.4518 325.534 17.5629 325.243 17.5433C324.781 17.5181 324.316 17.5415 323.851 17.5415Z" fill="white" fill-opacity="0.4"/>
<path d="M406.074 13.9218C405.271 14.5044 404.613 15.241 403.862 15.8824C403.445 16.2372 403.053 16.62 402.657 16.9963C402.538 17.1093 402.397 17.2073 402.25 17.1382C402.058 17.0449 402.218 16.9001 402.25 16.7797C403.161 13.5679 404.073 10.3561 404.987 7.14429C405.539 5.21161 406.109 3.28359 406.656 1.34998C406.707 1.17281 406.823 1.01981 406.982 0.919556L408.803 4.42639C409.532 5.85396 410.257 7.28247 410.994 8.70631C411.101 8.91358 411.186 9.09284 410.98 9.28238C410.041 10.1572 409.142 11.0713 408.158 11.9032C407.42 12.525 406.681 13.1589 406.074 13.9218Z" fill="white" fill-opacity="0.4"/>
<path opacity="0.6" d="M406.074 13.9218C406.681 13.1627 407.42 12.5213 408.161 11.9004C409.145 11.0685 410.044 10.1544 410.983 9.27961C411.186 9.09287 411.105 8.90614 410.997 8.70354C410.261 7.2797 409.535 5.85119 408.806 4.42362C409.169 3.20332 409.534 1.98209 409.923 0.673096C410.144 1.08671 410.335 1.4331 410.516 1.78415C411.719 4.10244 412.912 6.4366 414.13 8.74648C414.284 9.03965 414.258 9.18904 414.015 9.40565C411.41 11.7333 408.898 14.1552 406.28 16.4688C405.909 16.7965 405.552 17.1401 405.121 17.4352C405.423 16.368 405.723 15.3008 406.031 14.2346C406.061 14.1291 406.112 14.0329 406.074 13.9218Z" fill="white" fill-opacity="0.4"/>
<path d="M367.381 23.3975L369.099 20.0989C369.266 20.9448 369.411 21.6777 369.567 22.4666L371.252 20.2427C371.423 20.3099 371.348 20.4359 371.348 20.5284C371.317 21.3957 371.271 22.2631 371.244 23.1314C371.236 23.3658 371.163 23.4573 370.907 23.4498C370.607 23.4405 370.676 23.2556 370.688 23.095C370.721 22.6692 370.784 22.2444 370.739 21.7972C370.251 22.1361 370.008 22.6375 369.668 23.0586C369.572 23.1716 369.536 23.362 369.321 23.3247C369.106 23.2873 369.145 23.1006 369.113 22.9578C369.017 22.5367 368.921 22.1175 368.814 21.6376C368.557 22.1501 368.309 22.6123 368.093 23.0866C367.952 23.3882 367.766 23.5301 367.381 23.3975Z" fill="white" fill-opacity="0.4"/>
<path d="M331.859 20.2258C331.905 21.236 331.742 22.194 331.805 23.1622C331.82 23.3825 331.734 23.4497 331.505 23.4507C331.251 23.4507 331.263 23.3106 331.274 23.1519C331.303 22.6851 331.336 22.2108 331.377 21.6104C330.838 22.3069 330.372 22.9101 329.839 23.6001C329.69 22.9203 329.559 22.3191 329.421 21.6944C329.086 22.0744 328.98 22.5674 328.725 22.981C328.661 23.0865 328.629 23.2266 328.533 23.2919C328.437 23.3573 328.335 23.4665 328.202 23.3778C328.069 23.2891 328.095 23.1734 328.16 23.0501C328.649 22.1043 329.136 21.1567 329.675 20.1082C329.919 20.9485 329.904 21.7206 330.181 22.4367L331.859 20.2258Z" fill="white" fill-opacity="0.4"/>
<path d="M324.902 22.4956C325.497 21.7038 326.049 20.969 326.668 20.1465C326.73 20.9924 326.635 21.7244 326.556 22.4508C326.533 22.6608 326.506 22.8746 326.5 23.0866C326.494 23.2985 326.44 23.4601 326.181 23.4395C325.921 23.419 326.036 23.2145 326.041 23.0819C326.055 22.6646 326.083 22.2472 326.109 21.7505C325.502 22.3107 325.159 22.9886 324.606 23.5441C324.375 22.9157 324.34 22.2864 324.161 21.6385C323.896 22.1604 323.638 22.631 323.42 23.1174C323.285 23.4152 323.1 23.5179 322.737 23.3975C322.889 23.0969 323.026 22.7906 323.193 22.5068C323.526 21.9569 323.866 21.4116 324.076 20.8038C324.134 20.6385 324.234 20.477 324.439 20.5013C324.644 20.5256 324.56 20.7216 324.584 20.843C324.695 21.3658 324.79 21.8896 324.902 22.4956Z" fill="white" fill-opacity="0.4"/>
<path d="M377.28 20.1614L379.021 22.3742C379.195 21.7561 379.375 21.1669 379.524 20.5694C379.585 20.3238 379.711 20.2174 379.953 20.2697C380.255 20.3341 380.076 20.5348 380.039 20.6674C379.77 21.6244 379.489 22.5777 379.196 23.587L377.434 21.3565C377.254 21.9914 377.069 22.5702 376.931 23.1612C376.867 23.432 376.716 23.488 376.488 23.4413C376.15 23.3769 376.392 23.1612 376.425 23.0548C376.69 22.1053 376.979 21.1632 377.28 20.1614Z" fill="white" fill-opacity="0.4"/>
<path d="M337.968 23.4424C337.082 23.4424 337.082 23.4424 337.32 22.6207C337.512 21.9532 337.722 21.2884 337.887 20.6134C337.958 20.3221 338.096 20.2399 338.383 20.2604C338.733 20.2856 339.085 20.2604 339.441 20.3136C340.2 20.4248 340.509 20.8888 340.395 21.6273C340.24 22.6133 339.204 23.5852 337.968 23.4424ZM338.241 22.9391C339.143 22.9391 339.824 22.3005 339.819 21.5031C339.819 21.0643 339.582 20.8328 339.126 20.7767C338.714 20.7263 338.349 20.6964 338.24 21.2184C338.164 21.6481 338.056 22.0721 337.919 22.4872C337.773 22.8896 337.866 23.0213 338.241 22.9391Z" fill="white" fill-opacity="0.4"/>
<path d="M396.897 23.4291C395.809 23.5561 396.144 22.4534 395.584 22.1276C395.481 22.4777 395.349 22.8344 395.278 23.2013C395.218 23.5206 394.99 23.459 394.807 23.4282C394.541 23.3824 394.741 23.191 394.765 23.1014C394.992 22.2611 395.255 21.4208 395.478 20.5805C395.549 20.3116 395.679 20.2304 395.944 20.2621C396.101 20.2808 396.264 20.2546 396.424 20.2686C396.756 20.2985 397.131 20.2948 397.224 20.7065C397.274 20.8761 397.268 21.0564 397.207 21.2226C397.147 21.3888 397.035 21.5328 396.887 21.6346C396.214 22.149 396.214 22.164 396.643 22.9016C396.732 23.0556 396.86 23.1985 396.897 23.4291ZM395.744 21.5823C396.348 21.6038 396.637 21.4367 396.651 21.0819C396.661 20.8344 396.477 20.7495 396.278 20.7495C395.619 20.7513 396.003 21.334 395.742 21.586L395.744 21.5823Z" fill="white" fill-opacity="0.4"/>
<path d="M352.15 22.9437C352.475 22.9437 352.762 22.9503 353.049 22.9437C353.219 22.9437 353.328 22.9736 353.319 23.1669C353.311 23.3424 353.265 23.4563 353.042 23.447C352.579 23.4339 352.115 23.4376 351.652 23.447C351.432 23.447 351.426 23.3536 351.476 23.1856C351.732 22.3061 351.986 21.425 352.237 20.5424C352.289 20.3612 352.37 20.252 352.599 20.2623C353.029 20.28 353.464 20.2623 353.893 20.2688C353.996 20.2688 354.168 20.2352 354.136 20.3939C354.11 20.5171 354.136 20.7319 353.9 20.7384C353.677 20.7625 353.451 20.7625 353.227 20.7384C352.754 20.6516 352.671 20.9317 352.61 21.2762C352.581 21.4415 352.626 21.5022 352.797 21.4975C353.02 21.491 353.245 21.4891 353.47 21.4975C353.578 21.5031 353.758 21.4181 353.765 21.6198C353.773 21.6979 353.753 21.7763 353.706 21.8406C353.66 21.9048 353.591 21.9504 353.512 21.969C353.448 21.9778 353.384 21.98 353.32 21.9755C352.384 22.011 352.384 22.011 352.15 22.9437Z" fill="white" fill-opacity="0.4"/>
<path d="M391.627 22.9427C391.95 22.9427 392.249 22.9334 392.548 22.9427C392.665 22.9483 392.878 22.8493 392.856 23.0949C392.842 23.2545 392.825 23.4441 392.568 23.4413C392.03 23.4347 391.492 23.4413 390.909 23.4413C391.205 22.4255 391.492 21.4675 391.759 20.5049C391.812 20.3182 391.894 20.2556 392.087 20.2612C392.518 20.2724 392.952 20.2612 393.38 20.2612C393.506 20.2612 393.668 20.2444 393.626 20.4405C393.596 20.5861 393.571 20.7486 393.338 20.7365C393.067 20.7225 392.795 20.7365 392.524 20.7365C392.37 20.7365 392.262 20.7542 392.196 20.9232C392.004 21.4283 392.039 21.4834 392.606 21.4834C392.734 21.4834 392.863 21.4741 392.991 21.4834C393.098 21.4927 393.287 21.4143 393.27 21.6104C393.259 21.757 393.27 21.9773 393.001 21.9661C392.809 21.9577 392.617 21.982 392.424 21.9568C392.04 21.9054 391.818 22.0202 391.779 22.4236C391.767 22.5935 391.687 22.7513 391.627 22.9427Z" fill="white" fill-opacity="0.4"/>
<path d="M334.463 23.4422C333.467 23.4422 333.475 23.4422 333.773 22.4992C333.976 21.8531 334.181 21.2051 334.328 20.5469C334.386 20.2854 334.507 20.2668 334.712 20.2668C335.111 20.2668 335.511 20.2602 335.909 20.2668C336.024 20.2668 336.253 20.1734 336.203 20.418C336.176 20.5487 336.15 20.7625 335.892 20.7411C335.668 20.7293 335.443 20.7293 335.219 20.7411C335.056 20.7411 334.893 20.6878 334.8 20.9213C334.589 21.4535 334.602 21.4945 335.163 21.4908C335.274 21.4786 335.386 21.4786 335.497 21.4908C335.624 21.5197 335.863 21.362 335.854 21.6383C335.848 21.8428 335.699 21.9632 335.476 21.9679C335.253 21.9726 335.029 21.9679 334.803 21.9679C334.491 21.9763 334.121 22.6056 334.274 22.8689C334.344 22.9884 334.473 22.9296 334.575 22.9342C334.767 22.9436 334.959 22.923 335.151 22.9436C335.261 22.9548 335.479 22.8334 335.457 23.0846C335.441 23.261 335.42 23.4655 335.129 23.4412C334.912 23.4291 334.687 23.4431 334.463 23.4422Z" fill="white" fill-opacity="0.4"/>
<path d="M406.95 22.6514C406.835 23.3648 406.31 23.6505 405.412 23.5179C405.245 23.496 405.085 23.4411 404.941 23.3566C404.797 23.2721 404.673 23.1597 404.576 23.0266C404.479 22.8934 404.41 22.7422 404.376 22.5825C404.341 22.4227 404.341 22.2577 404.375 22.0978C404.475 21.5931 404.742 21.1341 405.136 20.7901C405.529 20.4461 406.027 20.2358 406.554 20.1912C406.898 20.1642 407.158 20.3425 407.435 20.4713C407.617 20.5582 407.59 20.7374 407.511 20.8775C407.431 21.0175 407.302 20.9428 407.184 20.8849C406.15 20.3817 405.075 21.0539 404.973 22.179C404.92 22.7448 405.453 23.136 406.067 23.0034C406.378 22.9313 406.676 22.8125 406.95 22.6514Z" fill="white" fill-opacity="0.4"/>
<path d="M409.362 23.4423C408.463 23.4423 408.459 23.4423 408.689 22.602C408.882 21.9176 409.084 21.2388 409.266 20.5544C409.324 20.3397 409.426 20.2491 409.664 20.2585C410.079 20.2762 410.494 20.2585 410.909 20.265C411.024 20.265 411.207 20.223 411.163 20.4247C411.135 20.5526 411.148 20.7514 410.901 20.7412C410.613 20.729 410.325 20.7346 410.036 20.7412C409.918 20.7412 409.82 20.7234 409.748 20.8896C409.507 21.4274 409.538 21.4928 410.147 21.4928C410.275 21.4928 410.402 21.4872 410.531 21.4928C410.66 21.4984 410.825 21.4395 410.814 21.6356C410.804 21.799 410.766 21.9783 410.515 21.9699C410.244 21.9605 409.972 21.9699 409.701 21.9699C409.517 21.9643 409.435 22.0147 409.37 22.2061C409.116 22.9437 409.103 22.9343 409.947 22.953C410.108 22.953 410.354 22.8419 410.36 23.1687C410.366 23.4955 410.15 23.4488 409.939 23.4488C409.745 23.4395 409.554 23.4423 409.362 23.4423Z" fill="white" fill-opacity="0.4"/>
<path d="M373.463 22.9436C373.795 22.9436 374.098 22.9502 374.401 22.9436C374.593 22.9371 374.674 23.0174 374.651 23.1892C374.634 23.3255 374.61 23.4562 374.399 23.4506C373.918 23.4376 373.437 23.4432 372.957 23.4506C372.764 23.4506 372.751 23.375 372.796 23.22C373.061 22.31 373.322 21.3987 373.578 20.4862C373.63 20.2995 373.748 20.2603 373.93 20.265C374.33 20.2762 374.73 20.2603 375.13 20.2734C375.247 20.2734 375.465 20.18 375.451 20.4115C375.453 20.4546 375.445 20.4974 375.429 20.5376C375.413 20.5777 375.389 20.6142 375.358 20.645C375.327 20.6758 375.29 20.7002 375.249 20.7167C375.208 20.7332 375.164 20.7415 375.12 20.7411C374.849 20.7411 374.575 20.7411 374.304 20.7411C374.157 20.7411 374.028 20.729 373.979 20.9568C373.864 21.4993 373.839 21.4946 374.428 21.4937C374.557 21.4937 374.685 21.4843 374.813 21.4937C374.941 21.503 375.101 21.4395 375.096 21.6365C375.088 21.8018 375.058 21.9866 374.8 21.9736C374.593 21.9633 374.381 21.9941 374.177 21.9652C373.825 21.9166 373.646 22.0389 373.606 22.3872C373.572 22.5756 373.524 22.7616 373.463 22.9436Z" fill="white" fill-opacity="0.4"/>
<path d="M346.148 20.1138C346.274 20.8915 346.37 21.5535 346.492 22.2108C346.549 22.5236 346.661 22.8261 346.733 23.136C346.761 23.2565 346.847 23.4507 346.599 23.4367C346.437 23.4273 346.182 23.5842 346.138 23.2191C346.115 23.0324 346.216 22.6496 345.886 22.6589C345.434 22.6729 344.886 22.391 344.551 22.9717C344.374 23.277 344.166 23.6122 343.646 23.3769L346.148 20.1138ZM345.114 22.1772C345.933 22.207 345.932 22.207 345.872 21.5376C345.866 21.4666 345.864 21.3957 345.858 21.2762C345.482 21.4909 345.464 21.8989 345.113 22.1772H345.114Z" fill="white" fill-opacity="0.4"/>
<path d="M362.662 20.2435C362.861 21.2232 363.06 22.2064 363.26 23.193C363.286 23.319 363.313 23.4656 363.107 23.4376C362.959 23.418 362.684 23.5608 362.688 23.2882C362.7 22.5627 362.217 22.6141 361.71 22.6346C361.399 22.6449 361.151 22.6907 361.037 23.0137C360.983 23.109 360.919 23.198 360.845 23.2789C360.715 23.4712 360.542 23.5132 360.364 23.3722C360.099 23.1678 360.433 23.1622 360.488 23.0623C361.021 22.0959 361.85 21.335 362.442 20.4097C362.486 20.3332 362.513 20.2258 362.662 20.2435ZM362.374 21.236C362.022 21.5226 361.934 21.8896 361.693 22.1809C362.441 22.2033 362.44 22.2033 362.388 21.5404C362.382 21.4685 362.38 21.3863 362.373 21.236H362.374Z" fill="white" fill-opacity="0.4"/>
<path d="M357.523 23.3983C357.802 22.4229 358.08 21.4476 358.357 20.4722C358.373 20.4153 358.399 20.3228 358.436 20.3163C358.908 20.2229 359.404 20.1837 359.841 20.3686C360.097 20.4769 360.257 20.7588 360.151 21.1155C359.998 21.6272 359.743 21.8699 359.224 21.9558C359.009 21.9903 358.801 22.0669 358.577 22.0492C358.427 22.0342 358.406 22.1183 358.385 22.2415C358.33 22.5132 358.253 22.7812 358.175 23.0482C358.047 23.4646 358.044 23.4637 357.523 23.3983ZM359.575 21.0165C359.509 20.7663 359.281 20.7262 359.06 20.7514C358.63 20.7999 358.742 21.1949 358.684 21.4367C358.629 21.6598 358.944 21.6365 359.062 21.6234C359.388 21.5889 359.511 21.3265 359.575 21.0165Z" fill="white" fill-opacity="0.4"/>
<path d="M388.959 20.2063C389.109 20.2343 389.288 20.2185 389.444 20.3193C389.601 20.4201 389.723 20.5602 389.642 20.7217C389.551 20.9084 389.368 20.873 389.192 20.7824C388.903 20.634 388.629 20.5723 388.382 20.8758C388.203 21.0942 388.23 21.267 388.447 21.4266C388.548 21.5012 388.654 21.5695 388.765 21.6311C389.091 21.8178 389.422 22.0046 389.313 22.4453C389.211 22.8505 389.056 23.2426 388.553 23.3378C388.294 23.3873 388.073 23.5638 387.789 23.5376C387.505 23.5115 387.273 23.4032 387.15 23.1343C387.074 22.969 387.011 22.8178 387.261 22.7235C387.431 22.6591 387.538 22.5984 387.673 22.8169C387.857 23.1156 388.346 23.1306 388.569 22.857C388.732 22.6563 388.821 22.4116 388.539 22.2081C388.451 22.1414 388.361 22.0791 388.267 22.0214C387.876 21.7973 387.493 21.5742 387.684 21.0261C387.855 20.5294 388.352 20.2026 388.959 20.2063Z" fill="white" fill-opacity="0.4"/>
<path d="M399.544 22.3182C399.981 21.7122 400.385 21.1585 400.783 20.6011C401.034 20.2501 401.031 20.2473 401.573 20.3098C401.17 20.87 400.786 21.4013 400.398 21.9335C400.011 22.4657 399.629 22.9895 399.186 23.5907C399.045 22.7243 398.918 21.9372 398.789 21.1501C398.759 20.9699 398.718 20.7907 398.693 20.6095C398.669 20.4424 398.682 20.3042 398.929 20.3294C399.09 20.3425 399.166 20.2865 399.242 20.5414C399.407 21.1025 399.414 21.6823 399.544 22.3182Z" fill="white" fill-opacity="0.4"/>
<path d="M349.246 20.7374H348.428C348.413 20.3742 348.553 20.2398 348.909 20.2575C349.433 20.2846 349.966 20.2622 350.488 20.2669C350.602 20.2669 350.794 20.2108 350.767 20.4032C350.749 20.5404 350.746 20.7953 350.478 20.7346C349.839 20.588 349.714 20.9699 349.613 21.4479C349.492 22.0081 349.316 22.5478 349.157 23.0949C349.123 23.2079 349.083 23.3638 348.996 23.4077C348.865 23.4641 348.716 23.4707 348.58 23.4264C348.388 23.3619 348.542 23.2032 348.566 23.1117C348.775 22.3312 349.008 21.5562 349.246 20.7374Z" fill="white" fill-opacity="0.4"/>
<path d="M367.473 20.3006C367.218 20.5732 367.024 20.8141 366.794 21.0186C366.163 21.5788 365.676 22.223 365.506 23.0539C365.461 23.2724 365.364 23.4713 365.121 23.3985C364.879 23.3256 364.94 23.0876 365.031 22.926C365.47 22.1474 365.111 21.4387 364.863 20.7123C364.818 20.5825 364.542 20.3753 364.875 20.2754C365.109 20.2044 365.342 20.2418 365.407 20.5676C365.464 20.8082 365.548 21.0423 365.656 21.266C365.688 21.3397 365.626 21.4751 365.752 21.4826C365.809 21.4859 365.865 21.4711 365.912 21.4404C365.959 21.4097 365.994 21.3648 366.012 21.3127C366.141 20.9812 366.464 20.8001 366.67 20.5293C366.85 20.2866 367.082 20.2109 367.473 20.3006Z" fill="white" fill-opacity="0.4"/>
<path d="M382.392 20.7384C382.175 20.7384 382.016 20.7496 381.858 20.7384C381.756 20.7281 381.57 20.8318 381.587 20.6012C381.6 20.4471 381.61 20.2725 381.835 20.2706C382.473 20.2706 383.113 20.2706 383.751 20.2706C383.835 20.2706 383.934 20.2856 383.918 20.3817C383.896 20.5106 383.887 20.6618 383.741 20.7365C383.711 20.75 383.677 20.7529 383.645 20.7449C382.952 20.5778 382.864 21.0381 382.741 21.5208C382.6 22.0698 382.369 22.5964 382.229 23.1454C382.164 23.4021 382.043 23.4171 381.845 23.3723C381.583 23.3134 381.707 23.1491 381.749 23.0119C381.956 22.2696 382.166 21.5348 382.392 20.7384Z" fill="white" fill-opacity="0.4"/>
<path d="M402.04 23.4665C402.347 22.4143 402.639 21.4433 402.905 20.4648C402.983 20.1782 403.194 20.2594 403.359 20.2725C403.639 20.2958 403.462 20.477 403.433 20.5806C403.197 21.4433 402.934 22.2985 402.716 23.165C402.611 23.5861 402.329 23.3919 402.04 23.4665Z" fill="white" fill-opacity="0.4"/>
<path d="M320.883 23.4395C320.62 23.4787 320.589 23.3732 320.655 23.1491C320.911 22.2929 321.149 21.4321 321.398 20.574C321.45 20.392 321.514 20.2389 321.782 20.2557C322.008 20.2706 322.054 20.3341 321.994 20.5358C321.774 21.2584 321.574 21.9857 321.345 22.7047C321.28 22.8564 321.24 23.0171 321.226 23.1808C321.225 23.4096 321.092 23.4721 320.883 23.4395Z" fill="white" fill-opacity="0.4"/>
<path d="M341.903 23.4424C341.722 23.4629 341.597 23.4424 341.66 23.2006C341.9 22.2856 342.262 21.4042 342.441 20.4733C342.491 20.2128 342.722 20.2408 342.899 20.2679C343.179 20.3109 343.012 20.5116 342.98 20.6274C342.749 21.4574 342.5 22.2818 342.266 23.1119C342.212 23.3061 342.173 23.4788 341.903 23.4424Z" fill="white" fill-opacity="0.4"/>
<path d="M431.601 1.1748L425.746 18.3304H429.186L430.84 13.3242H435.597L437.295 18.3304H440.808L434.938 1.1748H431.601ZM434.763 10.4699H431.689L432.977 6.69328C433.065 6.4298 433.152 6.18095 433.226 5.93211C433.313 6.19559 433.387 6.45907 433.489 6.73719L434.763 10.4699Z" fill="white" fill-opacity="0.4"/>
<path d="M446.59 10.5139C445.009 9.88447 444.834 9.59171 444.834 9.13794C444.834 8.55243 445.317 8.20112 446.107 8.20112C447.029 8.20112 447.761 8.56706 448.113 8.78663L448.786 9.21113L449.679 6.48849L449.269 6.225C448.493 5.71268 447.322 5.41992 446.137 5.41992C443.487 5.41992 441.57 7.08864 441.57 9.40142C441.57 11.5239 443.443 12.651 445.024 13.2219C446.59 13.8074 446.722 14.2173 446.722 14.715C446.722 15.6518 445.741 15.7835 445.156 15.7835C444.248 15.7835 443.268 15.4029 442.711 15.0663L442.038 14.6711L441.16 17.4376L441.584 17.6865C442.55 18.2573 443.838 18.5794 445.112 18.5794C448.025 18.5794 449.986 16.9399 449.986 14.51C449.986 12.0655 448.039 11.0555 446.59 10.5139Z" fill="white" fill-opacity="0.4"/>
<path d="M455.154 2.69727L451.875 3.69264V5.65411H450.104V8.47922H451.875V14.0855C451.875 15.6518 452.182 16.7643 452.841 17.5108C453.485 18.1988 454.436 18.594 455.549 18.594C456.544 18.594 457.261 18.3891 457.598 18.272L458.037 18.1256L457.862 15.2858L457.1 15.5054C456.881 15.5639 456.617 15.6225 456.076 15.6225C455.681 15.6225 455.139 15.6225 455.139 14.027V8.47922H458.11V5.65411H455.154V2.69727Z" fill="white" fill-opacity="0.4"/>
<path d="M466.117 5.53689L465.517 5.44906C465.341 5.41979 465.166 5.40515 464.931 5.40515C463.892 5.40515 462.941 5.82965 462.209 6.57618L462.165 5.65399H459.091L459.135 6.3127C459.193 7.29344 459.237 8.40591 459.237 9.84042V18.3304H462.56V11.6262C462.56 11.3188 462.589 10.9968 462.619 10.7772C462.867 9.45984 463.687 8.64012 464.8 8.64012C465.063 8.64012 465.224 8.64012 465.37 8.66939L466.132 8.83041L466.117 5.53689Z" fill="white" fill-opacity="0.4"/>
<path d="M472.162 5.41992C468.459 5.41992 465.868 8.1572 465.868 12.0948C465.868 15.9299 468.371 18.594 471.972 18.594C475.017 18.594 478.281 16.5008 478.281 11.9045C478.296 8.08401 475.778 5.41992 472.162 5.41992ZM474.929 11.9777C474.929 14.188 473.729 15.7982 472.089 15.7982C470.45 15.7982 469.264 14.2026 469.264 12.0362C469.264 10.631 469.864 8.24503 472.133 8.24503C474.343 8.21575 474.929 10.6749 474.929 11.9777Z" fill="white" fill-opacity="0.4"/>
<path d="M489.187 2.53616C488.103 1.55543 486.449 1.05774 484.312 1.05774C482.878 1.05774 481.516 1.16021 480.257 1.36514L479.745 1.45296V18.3304H483.039V12.0654C483.375 12.0947 483.727 12.1093 484.078 12.1093C486.303 12.1093 488.191 11.4214 489.391 10.1771C490.328 9.21103 490.797 7.9229 490.797 6.34201C490.782 4.80503 490.211 3.45835 489.187 2.53616ZM487.489 6.44447C487.489 8.84508 485.381 9.19639 484.122 9.19639C483.697 9.19639 483.346 9.18176 483.053 9.13784V3.98531C483.375 3.9414 483.814 3.92676 484.371 3.92676C485.776 3.92676 487.489 4.3659 487.489 6.44447Z" fill="white" fill-opacity="0.4"/>
<path d="M500.882 14.9638V10.6896C500.882 7.27893 499.111 5.41992 495.92 5.41992C494.442 5.41992 492.89 5.82978 491.821 6.50313L491.397 6.76661L492.29 9.40142L492.963 8.94765C493.651 8.47924 494.647 8.20112 495.613 8.20112C496.286 8.18648 496.769 8.3475 497.091 8.65489C497.355 8.91837 497.516 9.3136 497.574 9.81128C494.983 9.88447 493.095 10.4993 491.924 11.6557C491.119 12.4607 490.709 13.4707 490.709 14.6857C490.709 16.6325 492.114 18.594 494.837 18.594C495.993 18.594 497.076 18.2281 497.925 17.584L498.013 18.3452H501.16L501.043 17.6279C500.941 16.9253 500.882 16.0324 500.882 14.9638ZM495.349 15.8128C494.851 15.8128 494.032 15.6372 494.032 14.4515C494.032 13.9977 494.164 13.6318 494.456 13.3536C494.837 12.9731 495.7 12.5339 497.633 12.5047V13.866C497.633 13.9684 497.618 14.1441 497.574 14.3197C497.34 15.0077 496.623 15.8128 495.349 15.8128Z" fill="white" fill-opacity="0.4"/>
<path d="M510.031 5.65405L507.615 12.7827C507.557 12.9583 507.498 13.1486 507.44 13.3243C507.381 13.1486 507.323 12.973 507.249 12.812L504.615 5.65405H500.999L505.537 17.0277L505.551 17.057C505.625 17.2033 505.654 17.2912 505.654 17.3204C505.625 17.379 505.581 17.4961 505.551 17.5693C505.156 18.4036 504.571 19.1941 503.985 19.6625L503.971 19.6771C503.312 20.248 502.638 20.4969 502.36 20.57L501.775 20.7603L502.624 23.6001L503.165 23.4976C503.502 23.4391 504.673 23.1609 506.02 22.0338C507.63 20.5993 508.699 18.3304 510.104 14.6417L513.544 5.65405H510.031Z" fill="white" fill-opacity="0.4"/>
<path d="M437.866 5.88824C440.003 3.7072 443.633 2.40443 447.571 2.40443C449.107 2.40443 450.601 2.59472 452.02 2.98995L452.138 3.01922L454.655 2.25805L453.528 1.81892C451.376 0.999195 448.903 0.560059 446.356 0.560059C442.652 0.560059 439.198 1.45297 436.636 3.07777L436.358 3.25342L437.426 6.37129L437.866 5.88824Z" fill="white" fill-opacity="0.4"/>
<defs>
<clipPath id="clip0_264_3061">
<rect width="55.296" height="23.04" fill="white" transform="translate(253.81 0.560059)"/>
</clipPath>
</defs>
</svg>
